<svg version="1.1" id="Layer_1" xmlns="http://www.w3.org/2000/svg" xmlns:xlink="http://www.w3.org/1999/xlink" x="0px" y="0px"
	 width="100%" viewBox="0 0 2000 2000" enable-background="new 0 0 2000 2000" xml:space="preserve">
<path fill="#FFFFFF" opacity="1.000000" stroke="none" 
	d="
M970.000000,2001.000000 
	C646.666687,2001.000000 323.833344,2001.000000 1.000000,2001.000000 
	C1.000000,1334.333374 1.000000,667.666687 1.000000,1.000000 
	C667.666687,1.000000 1334.333374,1.000000 2001.000000,1.000000 
	C2001.000000,667.666687 2001.000000,1334.333374 2001.000000,2001.000000 
	C1657.500000,2001.000000 1314.000000,2001.000000 970.000000,2001.000000 
M1251.828857,670.795593 
	C1251.707397,670.667358 1251.586060,670.539062 1251.828857,669.862915 
	C1265.824097,659.163147 1275.393188,645.140564 1282.118774,629.074280 
	C1283.114014,626.696777 1283.016357,623.861694 1283.424316,621.238342 
	C1280.753052,622.212463 1277.695801,622.649658 1275.473511,624.248047 
	C1261.295898,634.445251 1247.302246,644.898132 1232.773560,654.767090 
	C1232.599365,654.617432 1232.425293,654.467773 1232.615234,653.760803 
	C1235.464722,650.735474 1238.292969,647.689758 1241.167480,644.688232 
	C1254.040771,631.245667 1265.388428,616.793579 1271.294067,598.794006 
	C1272.185303,596.078125 1272.622925,593.213501 1273.270386,590.417725 
	C1272.718872,590.190796 1272.167358,589.963928 1271.615845,589.737061 
	C1268.959839,591.622986 1266.088135,593.269531 1263.684326,595.435547 
	C1251.843262,606.105042 1240.227417,617.026062 1228.326904,627.627930 
	C1221.283813,633.902466 1213.859863,639.749512 1206.165771,645.183228 
	C1206.000122,644.999023 1205.834351,644.814758 1205.923584,644.005981 
	C1211.138062,637.564331 1216.400757,631.160889 1221.557495,624.673401 
	C1234.080444,608.919067 1246.400635,593.030212 1252.157593,573.252502 
	C1252.730713,571.283325 1253.017212,569.230713 1253.436890,567.216797 
	C1252.890381,566.939270 1252.343872,566.661743 1251.797363,566.384277 
	C1249.351562,568.251099 1246.715576,569.918457 1244.502808,572.029480 
	C1240.788574,575.572815 1237.327393,579.382996 1233.788452,583.108154 
	C1218.731079,598.958130 1203.684448,614.818054 1188.190186,630.184204 
	C1188.030273,630.032837 1187.870239,629.881409 1187.914917,629.078674 
	C1196.999390,615.549438 1205.963745,601.937439 1215.205566,588.516479 
	C1222.894531,577.350708 1227.047485,564.770752 1230.594971,551.912354 
	C1231.051758,550.256775 1230.943970,548.445557 1231.097656,546.706360 
	C1230.723389,546.452209 1230.349121,546.198120 1229.974976,545.943970 
	C1228.068604,547.351135 1225.877930,548.500061 1224.315063,550.219421 
	C1221.074341,553.784607 1218.188232,557.670288 1215.119263,561.393555 
	C1192.697510,588.596252 1170.416138,615.916748 1147.777832,642.938171 
	C1135.723145,657.326721 1122.815918,670.999634 1110.714600,685.350769 
	C1098.728149,699.565613 1087.131836,714.117126 1075.628174,728.728760 
	C1067.092285,739.570801 1058.920044,750.702148 1050.723022,761.805969 
	C1048.970093,764.180603 1046.950317,766.862000 1046.530762,769.626282 
	C1045.047852,779.395081 1039.973022,786.347229 1032.415161,792.548401 
	C1023.872192,799.557983 1016.333069,807.790955 1007.957153,815.878357 
	C1003.216797,801.755066 997.337585,788.001404 994.169556,773.649353 
	C991.469055,761.415100 988.994812,748.808655 989.772034,735.990845 
	C989.999146,732.246033 989.806946,728.475708 989.806946,724.441162 
	C988.545898,725.016357 987.763611,725.373169 986.391235,725.999146 
	C987.022156,717.829590 987.610535,710.211060 988.198914,702.592590 
	C985.169128,712.580566 985.702026,723.330261 979.656921,732.482910 
	C981.481445,718.511414 983.306030,704.539856 985.130615,690.568298 
	C984.882996,690.506958 984.635376,690.445618 984.387817,690.384338 
	C981.622192,700.406433 978.856567,710.428528 976.090942,720.450562 
	C975.481018,720.301758 974.871033,720.152954 974.261108,720.004150 
	C978.373657,699.567566 982.486206,679.130981 986.598755,658.694458 
	C985.035828,661.545837 983.858826,664.573608 982.866089,667.660645 
	C976.553589,687.291443 970.306274,706.943176 963.986877,726.571655 
	C960.476135,737.476135 956.375916,748.218506 953.441101,759.272888 
	C950.510071,770.313354 948.628540,781.637817 946.463013,792.871765 
	C946.032288,795.106323 945.794495,797.702271 946.507874,799.773315 
	C948.814270,806.468445 944.745667,810.530396 941.138611,815.419983 
	C939.923279,813.804749 939.049133,812.620911 938.152283,811.454468 
	C931.080200,802.255920 925.096680,791.857178 914.524353,786.164429 
	C908.469055,782.903992 901.568115,781.244080 895.131531,778.655640 
	C880.111816,772.615540 865.260010,775.558716 851.484253,781.489502 
	C827.466431,791.829773 814.744080,811.681152 811.338379,837.071655 
	C810.249695,845.188416 806.892822,851.331116 802.559631,857.666809 
	C799.681091,861.875549 797.666992,866.675476 795.265991,871.210815 
	C795.697144,871.556763 796.128296,871.902710 796.559509,872.248657 
	C799.672791,871.125061 802.786072,870.001465 806.372009,868.707275 
	C805.018311,873.239502 803.921692,876.910950 802.468567,881.776062 
	C805.933167,880.185242 808.223633,879.271545 810.385803,878.117371 
	C820.819153,872.548340 830.694153,864.806763 843.764709,870.091003 
	C845.111145,870.635315 846.688660,870.640808 848.168396,870.816956 
	C854.246277,871.540527 857.273682,873.753357 857.930237,879.942932 
	C859.605591,895.735840 866.273132,910.007019 870.843445,924.918274 
	C874.598694,937.170593 881.482788,947.497437 890.630249,956.202515 
	C898.804016,963.981079 907.350769,971.408203 916.125244,978.505493 
	C928.825012,988.777832 942.012329,998.324890 958.278625,1002.474609 
	C962.743958,1003.613770 967.021240,1005.490112 971.948486,1007.226868 
	C970.550903,1009.234070 969.482910,1010.767822 968.278259,1012.497925 
	C935.357849,996.727356 902.898804,981.177795 870.191833,965.509521 
	C879.005249,957.253662 880.157959,949.713928 873.553650,944.394653 
	C868.506470,940.329529 862.554199,938.936157 856.154907,940.594116 
	C851.652100,941.760803 847.271240,943.460388 842.727295,944.392212 
	C835.336304,945.907959 827.849121,947.043396 821.120605,941.687866 
	C830.454773,935.115173 831.637695,925.489929 823.528564,920.446533 
	C820.303040,918.440369 816.047302,916.928467 812.354126,917.108887 
	C806.822998,917.378967 801.329407,919.171753 795.901489,920.622437 
	C787.811218,922.784790 779.921570,923.618103 772.395508,918.734009 
	C780.267090,912.429993 781.956177,907.523682 778.515442,901.094543 
	C775.977905,896.353333 768.465942,892.945312 762.161865,893.582275 
	C752.114197,894.597534 742.984192,899.835693 732.459839,899.305298 
	C727.468811,899.053650 726.104736,904.752991 729.436035,909.013733 
	C732.089905,912.408203 734.871521,915.771423 737.001221,919.489441 
	C739.548279,923.936035 741.347595,928.803589 743.676758,933.384033 
	C747.230103,940.372192 754.583496,943.711975 761.653870,941.753418 
	C767.719727,940.073059 770.504456,935.554688 770.261658,927.849670 
	C770.254150,927.610718 770.598877,927.360718 770.842590,927.030212 
	C777.309570,928.625854 780.323486,934.143005 783.436340,939.038635 
	C786.886841,944.465210 789.253174,950.577393 792.140991,956.366394 
	C795.552551,963.205444 802.440613,966.657898 809.449829,965.106873 
	C816.159607,963.622070 818.854797,959.645447 819.065857,950.975830 
	C819.071045,950.762634 819.429565,950.557983 820.209106,949.718384 
	C822.370911,951.551086 825.147827,953.032776 826.653625,955.343018 
	C831.424438,962.662842 836.216187,970.048157 840.066650,977.867554 
	C844.282776,986.429504 852.362488,990.957275 860.252319,987.848816 
	C866.547058,985.368713 868.553650,980.264954 868.019348,973.129089 
	C900.057617,988.423889 931.358459,1003.366638 962.764221,1018.359497 
	C958.558960,1023.026245 959.397278,1028.066040 961.252930,1032.707642 
	C963.286133,1037.792969 968.363220,1037.083008 972.938721,1037.646606 
	C969.055725,1030.623047 969.055725,1030.623047 973.818298,1023.768433 
	C976.224487,1024.935181 978.669800,1026.120850 981.193848,1027.344727 
	C974.545898,1036.224487 975.736267,1045.848755 982.569092,1047.205688 
	C982.115906,1044.659668 981.612793,1041.833496 981.109741,1039.007324 
	C981.619324,1038.899414 982.128967,1038.791504 982.638550,1038.683594 
	C984.653870,1041.492432 986.669128,1044.301270 988.684448,1047.110229 
	C989.031494,1046.866943 989.378540,1046.623657 989.725586,1046.380493 
	C989.385986,1045.299072 989.097351,1044.198242 988.697327,1043.139648 
	C987.401672,1039.711670 988.574036,1037.450073 991.220154,1034.900757 
	C994.000183,1032.222290 995.816467,1034.258179 997.803894,1035.177368 
	C1007.605164,1039.710938 1017.329773,1044.410522 1027.073364,1049.068237 
	C1059.648682,1064.640503 1092.234253,1080.190918 1124.749268,1095.887939 
	C1126.249756,1096.612427 1127.679199,1098.507446 1128.155518,1100.144165 
	C1129.780762,1105.727417 1130.949097,1111.442749 1132.323120,1117.100220 
	C1132.978027,1119.797119 1133.841797,1122.628662 1137.424072,1121.894287 
	C1141.276245,1121.104370 1140.309448,1117.900024 1139.834717,1115.394531 
	C1139.009521,1111.039551 1137.847900,1106.748291 1136.661987,1101.730591 
	C1144.655762,1104.783691 1152.232910,1106.744995 1152.538086,1116.864014 
	C1152.651123,1120.608154 1154.226807,1124.301758 1155.074707,1128.032227 
	C1155.711914,1130.835693 1156.763428,1133.553467 1160.207886,1132.763916 
	C1163.732422,1131.956055 1163.298584,1128.919800 1162.690918,1126.216553 
	C1161.720947,1121.901489 1160.657593,1117.607666 1159.555054,1112.974487 
	C1169.306152,1115.366211 1171.014893,1117.013916 1172.966675,1125.321411 
	C1173.955688,1129.531372 1175.041260,1133.720459 1175.938721,1137.949463 
	C1176.548706,1140.823242 1177.662842,1143.489868 1181.023682,1142.724487 
	C1184.428101,1141.949097 1184.177979,1139.067871 1183.456665,1136.218994 
	C1182.373901,1131.942139 1181.499390,1127.612793 1180.253662,1122.042236 
	C1183.499390,1123.652466 1185.506958,1124.748169 1187.594727,1125.659668 
	C1190.344360,1126.859863 1193.554932,1129.647827 1195.653198,1125.214111 
	C1197.519287,1121.270874 1193.944214,1120.149780 1191.290283,1118.798096 
	C1189.258301,1117.763184 1187.234863,1116.711426 1184.699463,1115.405396 
	C1187.258545,1114.109619 1189.312622,1113.042114 1191.391113,1112.024414 
	C1193.483154,1111.000244 1195.582153,1109.987061 1197.709229,1109.038818 
	C1200.145996,1107.952637 1202.042603,1106.134521 1200.122070,1103.751221 
	C1199.096069,1102.477783 1196.042358,1101.708984 1194.429199,1102.257324 
	C1190.206299,1103.692749 1186.260620,1105.953857 1182.225830,1107.929688 
	C1175.074463,1111.431641 1170.086426,1110.544434 1163.820923,1104.437012 
	C1167.814819,1102.566528 1171.904175,1101.037354 1175.531860,1098.769653 
	C1177.062744,1097.812622 1178.771729,1094.980591 1178.378784,1093.559814 
	C1177.585571,1090.691284 1174.981079,1090.588135 1172.258301,1091.946533 
	C1167.048096,1094.546021 1161.772949,1097.035034 1156.408325,1099.292969 
	C1154.899536,1099.927856 1152.781982,1100.148560 1151.296997,1099.601074 
	C1147.796021,1098.310547 1144.507690,1096.442993 1140.423584,1094.465088 
	C1145.372803,1092.062866 1149.531982,1089.994995 1153.735962,1088.022705 
	C1156.169556,1086.880981 1158.016968,1085.058228 1156.069336,1082.708252 
	C1155.024902,1081.448120 1151.936401,1080.688843 1150.362671,1081.280151 
	C1145.242065,1083.204102 1140.292114,1085.667236 1135.480225,1088.295776 
	C1132.555908,1089.893066 1130.172119,1089.994995 1127.150024,1088.445068 
	C1119.308228,1084.423096 1111.276855,1080.770752 1103.320801,1076.971436 
	C1079.297485,1065.499268 1055.245728,1054.085327 1031.304565,1042.443970 
	C1029.425415,1041.530273 1027.308350,1039.166382 1027.055298,1037.245605 
	C1026.502930,1033.052002 1024.434204,1030.421021 1021.386536,1027.815430 
	C1018.041565,1024.955444 1015.238464,1021.461914 1011.297913,1017.290222 
	C1022.173706,1016.785339 1031.143311,1016.616882 1040.066650,1015.882935 
	C1048.511963,1015.188293 1056.947266,1014.141296 1065.313477,1012.793030 
	C1071.480713,1011.799072 1076.858521,1007.451477 1076.176758,1003.421997 
	C1074.941528,996.122437 1079.993896,993.588989 1083.856445,990.287231 
	C1095.530640,999.495850 1108.123657,1006.422729 1121.136841,1012.672791 
	C1125.406250,1014.723389 1130.801514,1015.909119 1133.619995,1019.236816 
	C1144.038330,1031.537720 1153.557007,1044.598267 1163.544067,1057.270752 
	C1164.369873,1058.318481 1166.182861,1059.157959 1167.520630,1059.135010 
	C1173.551514,1059.031250 1179.576294,1058.581787 1185.702759,1058.251587 
	C1185.345581,1056.333252 1185.153198,1055.300293 1184.812378,1053.469727 
	C1192.792236,1058.888428 1200.704102,1061.917969 1210.658325,1062.033203 
	C1209.122070,1060.202881 1208.359985,1059.166870 1207.470825,1058.254395 
	C1187.822998,1038.089355 1168.105713,1017.991333 1148.553589,997.734009 
	C1145.135742,994.192810 1141.721802,990.343323 1139.490234,986.024353 
	C1134.630493,976.619385 1130.523926,966.824707 1126.129517,957.180176 
	C1123.611572,951.653809 1121.132568,946.109680 1118.194702,939.594727 
	C1123.644531,939.594727 1128.079590,939.169373 1132.402710,939.683777 
	C1141.242554,940.735474 1148.801270,935.931335 1157.136841,934.828125 
	C1157.418091,934.790955 1157.626343,934.357544 1157.921021,934.241760 
	C1159.874268,933.473877 1161.822998,932.176208 1163.808350,932.110229 
	C1168.826904,931.943420 1173.252319,930.870300 1176.907837,927.139648 
	C1178.349854,925.668091 1180.177979,924.131714 1182.089600,923.646240 
	C1187.927979,922.163574 1193.033325,920.240479 1193.151367,913.169739 
	C1203.894165,910.096802 1206.528564,907.280701 1207.630249,897.937561 
	C1222.440552,893.830566 1225.803345,878.160645 1215.845215,869.138855 
	C1216.020630,868.955444 1216.195923,868.771973 1217.097168,868.805908 
	C1228.933594,873.244080 1232.733765,871.463806 1237.079956,859.690918 
	C1240.398560,850.701782 1241.334595,842.207458 1231.515625,835.035034 
	C1234.639771,835.035034 1236.544434,835.447937 1238.161987,834.942505 
	C1240.891968,834.089600 1244.255615,833.340942 1245.929565,831.351074 
	C1255.322144,820.186462 1252.643188,802.726013 1240.742065,794.889771 
	C1240.565674,794.773621 1240.611206,794.320435 1240.519531,793.853088 
	C1241.543945,793.853088 1242.522339,793.852417 1243.500732,793.853149 
	C1253.574219,793.860962 1257.506470,790.420410 1259.065552,780.263794 
	C1259.216309,779.282410 1259.611206,778.327393 1259.676514,777.345764 
	C1260.345825,767.281311 1260.838867,757.255737 1251.130737,750.263672 
	C1260.637817,740.575989 1262.402344,727.431213 1265.737061,715.001709 
	C1266.867432,710.788147 1264.584106,708.271667 1260.185425,708.078552 
	C1257.910034,707.978699 1255.597534,708.540771 1253.313232,708.880127 
	C1251.057007,709.215454 1248.814819,709.646973 1246.699097,710.013306 
	C1252.050659,705.620178 1258.528198,702.244507 1262.084717,696.918335 
	C1267.154175,689.325989 1270.210327,680.357788 1273.818726,671.846802 
	C1274.572266,670.069214 1274.705322,666.354675 1273.871826,665.916748 
	C1271.971558,664.918396 1269.092407,664.747498 1266.974121,665.406860 
	C1261.928833,666.977478 1257.093872,669.224060 1251.828857,670.795593 
M569.714539,1316.279419 
	C596.750244,1309.463867 615.424866,1284.883667 614.678223,1257.096558 
	C613.947266,1229.891724 594.213379,1206.360718 566.553711,1202.002808 
	C553.361877,1199.924683 539.677734,1200.671143 526.217407,1200.689819 
	C514.929871,1200.705566 512.259094,1203.814941 512.250000,1215.216919 
	C512.227051,1244.014038 512.233215,1272.811035 512.257324,1301.608154 
	C512.259155,1303.764282 512.338013,1305.943359 512.652283,1308.071777 
	C513.644653,1314.791992 515.877563,1317.608276 522.589172,1317.623535 
	C538.030579,1317.658691 553.473572,1316.944214 569.714539,1316.279419 
M1087.203369,1250.290039 
	C1083.321045,1226.077393 1068.758667,1210.533081 1046.139282,1203.421753 
	C1029.130493,1198.074219 1011.107300,1200.789917 993.513916,1201.311035 
	C988.881714,1201.448120 986.139771,1204.992188 985.914673,1209.790771 
	C985.665100,1215.111572 985.559937,1220.443970 985.561707,1225.771240 
	C985.570435,1252.094482 985.428955,1278.420654 985.780762,1304.739746 
	C985.923950,1315.451660 988.866394,1317.823364 999.512939,1317.902466 
	C1009.675720,1317.977905 1019.840637,1318.013916 1030.002563,1317.895508 
	C1064.966919,1317.487793 1092.087280,1285.901245 1087.203369,1250.290039 
M1312.688599,1200.900146 
	C1302.375854,1201.388794 1299.515503,1204.308350 1299.257324,1214.641113 
	C1299.215698,1216.305664 1299.241211,1217.971924 1299.241211,1219.637451 
	C1299.240479,1244.120605 1299.233643,1268.603760 1299.246826,1293.086914 
	C1299.249268,1297.748901 1299.061890,1302.432983 1299.438965,1307.067993 
	C1300.044556,1314.511475 1303.132812,1317.781372 1310.518311,1317.850342 
	C1333.832642,1318.067871 1357.151489,1318.039185 1380.465088,1317.782104 
	C1383.147095,1317.752563 1386.879272,1316.429565 1388.275635,1314.420898 
	C1392.468506,1308.389648 1391.989868,1301.344604 1389.440186,1294.812134 
	C1387.275513,1289.266113 1381.727783,1289.711426 1376.938110,1289.674927 
	C1362.448853,1289.564453 1347.958252,1289.637451 1333.468262,1289.611328 
	C1331.718994,1289.608154 1329.969971,1289.435181 1328.185913,1289.338989 
	C1328.185913,1283.897217 1328.185913,1279.001465 1328.185913,1273.716797 
	C1330.343994,1273.716797 1332.150635,1273.718506 1333.957275,1273.716431 
	C1342.784424,1273.706055 1351.615845,1273.859863 1360.437744,1273.638672 
	C1369.927734,1273.401001 1372.830322,1270.440796 1373.432739,1260.985352 
	C1373.537842,1259.337036 1373.404297,1257.656860 1373.219604,1256.009644 
	C1372.313232,1247.925415 1369.483887,1245.277466 1361.252686,1245.173218 
	C1351.760742,1245.052856 1342.266113,1245.135254 1332.772705,1245.130005 
	C1331.196289,1245.129028 1329.619873,1245.129883 1328.142334,1245.129883 
	C1328.142334,1239.355835 1328.142334,1234.429688 1328.142334,1229.066406 
	C1330.240112,1229.066406 1332.040405,1229.067871 1333.840698,1229.066162 
	C1348.996826,1229.052002 1364.154907,1229.161621 1379.307129,1228.910767 
	C1382.122314,1228.864136 1385.889160,1228.231323 1387.534790,1226.376709 
	C1392.712158,1220.541504 1391.791382,1213.288452 1389.704834,1206.506348 
	C1388.014038,1201.010010 1382.899902,1200.887817 1378.099121,1200.888916 
	C1356.613892,1200.893677 1335.128784,1200.889893 1312.688599,1200.900146 
M1401.239624,1273.500000 
	C1401.245361,1283.824097 1401.008057,1294.157104 1401.392700,1304.467041 
	C1401.521851,1307.926636 1402.179199,1312.506592 1404.431396,1314.523560 
	C1410.160645,1319.653931 1417.509888,1318.772583 1424.267944,1316.437134 
	C1429.645386,1314.578735 1429.728516,1309.407837 1429.793701,1304.675537 
	C1429.877930,1298.566040 1429.814209,1292.454468 1429.814209,1285.768799 
	C1437.336914,1285.768799 1444.293457,1285.960815 1451.230713,1285.677490 
	C1454.130859,1285.558960 1455.314209,1286.613037 1456.334229,1289.114014 
	C1459.535400,1296.962646 1462.869263,1304.762451 1466.373413,1312.480591 
	C1469.068359,1318.416138 1473.135010,1320.128662 1479.406616,1318.185059 
	C1481.930298,1317.402954 1484.443970,1316.422607 1486.756592,1315.156616 
	C1493.436401,1311.500122 1494.872925,1307.828979 1492.054565,1300.761230 
	C1488.853882,1292.734863 1485.389526,1284.808472 1481.826050,1276.935425 
	C1480.644043,1274.323853 1480.870972,1272.628662 1482.740845,1270.294678 
	C1493.797729,1256.493774 1495.316040,1240.999023 1488.227173,1225.293701 
	C1480.999146,1209.280029 1467.435547,1201.526489 1450.031982,1200.960449 
	C1438.388062,1200.581665 1426.721313,1200.823364 1415.065796,1200.916626 
	C1404.175415,1201.003906 1401.274048,1204.007446 1401.253662,1215.051392 
	C1401.218262,1234.200928 1401.241211,1253.350464 1401.239624,1273.500000 
M624.935547,1233.500000 
	C624.949646,1257.663574 624.903870,1281.827515 625.011169,1305.990723 
	C625.047241,1314.106079 627.995361,1317.096436 636.037354,1317.813721 
	C637.691711,1317.961060 639.370972,1317.949585 641.032593,1317.874512 
	C649.979675,1317.470093 652.986328,1314.431885 653.087646,1305.575439 
	C653.161377,1299.132446 653.102051,1292.687988 653.102051,1285.764526 
	C660.727051,1285.764526 667.704468,1285.956665 674.662354,1285.671509 
	C677.508240,1285.554810 678.805359,1286.444580 679.842712,1288.986938 
	C683.110229,1296.995239 686.489624,1304.963867 690.072510,1312.835449 
	C692.552856,1318.284668 696.644592,1320.061279 702.357971,1318.380859 
	C705.050781,1317.588989 707.707397,1316.501221 710.183594,1315.179077 
	C716.828369,1311.630859 718.381042,1307.751831 715.609314,1300.804321 
	C712.466370,1292.926758 709.086914,1285.134155 705.515503,1277.441406 
	C704.059875,1274.306030 704.522095,1272.364380 706.708313,1269.600464 
	C717.020630,1256.562988 718.505981,1241.852905 712.470947,1226.759277 
	C706.372009,1211.505737 694.041626,1202.852417 678.117615,1201.332397 
	C663.916138,1199.977051 649.481445,1200.830933 635.156921,1201.097778 
	C628.126343,1201.228638 625.110291,1204.801025 624.988525,1212.003052 
	C624.873047,1218.833740 624.945618,1225.667603 624.935547,1233.500000 
M1088.973267,1312.424316 
	C1092.092041,1314.295410 1095.059326,1316.509644 1098.360840,1317.966431 
	C1105.415649,1321.079712 1109.590088,1319.566040 1113.188232,1312.742554 
	C1116.057251,1307.301514 1118.417114,1301.586060 1121.415039,1296.222656 
	C1122.244751,1294.738281 1124.528931,1293.208740 1126.175659,1293.175537 
	C1138.664185,1292.922852 1151.162476,1292.923340 1163.651001,1293.176025 
	C1165.277710,1293.208862 1167.533813,1294.758545 1168.354004,1296.239258 
	C1171.492920,1301.906738 1173.881226,1307.998535 1177.144531,1313.584351 
	C1178.526489,1315.949951 1181.154053,1318.663818 1183.608276,1319.124023 
	C1190.741943,1320.461426 1196.443359,1316.586914 1201.316772,1311.877930 
	C1205.537476,1307.799561 1203.334961,1303.282959 1201.265991,1299.001221 
	C1187.008423,1269.495605 1172.727173,1240.001587 1158.485718,1210.488281 
	C1155.768677,1204.857544 1151.996216,1200.861084 1145.197632,1200.903931 
	C1138.379395,1200.946899 1134.100098,1204.522095 1131.262695,1210.431396 
	C1122.550659,1228.575195 1113.758545,1246.680542 1105.012329,1264.807861 
	C1099.302002,1276.643188 1093.626831,1288.495239 1087.916504,1300.330566 
	C1086.002930,1304.296509 1084.999878,1308.190063 1088.973267,1312.424316 
M766.936096,1235.500000 
	C766.948425,1258.989746 766.903320,1282.479858 767.004150,1305.969238 
	C767.039673,1314.252075 770.223450,1317.456665 778.419250,1317.924927 
	C780.740051,1318.057373 783.101074,1318.069702 785.404846,1317.802734 
	C792.036926,1317.034180 794.869751,1313.980469 795.039673,1307.357544 
	C795.184814,1301.696777 795.105896,1296.030151 795.114502,1290.366089 
	C795.122742,1284.942871 795.116211,1279.519653 795.116211,1273.828735 
	C806.560974,1273.828735 817.214294,1273.913696 827.865601,1273.802979 
	C837.128662,1273.706665 840.409546,1270.435547 840.791992,1261.133911 
	C840.880249,1258.986328 840.777039,1256.790039 840.423828,1254.672729 
	C839.296326,1247.914185 836.599915,1245.458984 829.741638,1245.216797 
	C823.917725,1245.011353 818.081726,1245.142212 812.251038,1245.134521 
	C806.661194,1245.127075 801.071350,1245.132935 795.545044,1245.132935 
	C795.545044,1239.347656 795.545044,1234.305908 795.545044,1229.063843 
	C810.960083,1229.063843 825.954102,1228.783081 840.932800,1229.140015 
	C857.090332,1229.525269 859.044434,1226.208374 857.987915,1210.183716 
	C857.587830,1204.115601 854.447754,1201.042236 848.304138,1201.008789 
	C824.982361,1200.881714 801.658508,1200.853516 778.337341,1201.029663 
	C770.429626,1201.089355 767.227051,1204.549683 767.025818,1212.510986 
	C766.840576,1219.836792 766.954102,1227.170044 766.936096,1235.500000 
M1227.500000,1200.560181 
	C1214.337646,1200.630615 1201.168701,1200.477295 1188.015381,1200.860474 
	C1180.814453,1201.070190 1179.132568,1203.201660 1178.648071,1210.418945 
	C1178.559326,1211.742310 1178.598755,1213.086060 1178.712280,1214.409058 
	C1179.322754,1221.518921 1181.566772,1223.706909 1188.855469,1223.866821 
	C1195.685059,1224.016602 1202.520142,1223.915283 1209.352783,1223.921509 
	C1213.108887,1223.924805 1216.864868,1223.921997 1220.913208,1223.921997 
	C1220.913208,1232.489624 1220.911255,1240.300293 1220.913696,1248.111084 
	C1220.919922,1267.609253 1220.927490,1287.107300 1220.936035,1306.605469 
	C1220.937744,1310.593384 1221.586914,1314.362427 1225.459106,1316.503296 
	C1237.073853,1322.925049 1248.630249,1316.457031 1248.651367,1303.515869 
	C1248.691406,1279.018188 1248.665894,1254.520386 1248.667480,1230.022705 
	C1248.667603,1228.107300 1248.667480,1226.191895 1248.667480,1223.921997 
	C1251.248291,1223.921997 1253.056030,1223.923706 1254.863647,1223.921631 
	C1263.362793,1223.911865 1271.884277,1224.250854 1280.349243,1223.707886 
	C1283.474731,1223.507446 1287.826538,1222.077515 1289.280640,1219.748413 
	C1295.065674,1210.481934 1289.338257,1200.822754 1278.495239,1200.572632 
	C1277.162720,1200.541870 1275.828979,1200.560547 1274.495728,1200.560547 
	C1259.163818,1200.560303 1243.831909,1200.560791 1227.500000,1200.560181 
M934.877930,1260.500000 
	C934.877930,1248.410034 934.877930,1236.319946 934.877930,1223.916260 
	C945.247925,1223.916260 954.891602,1223.954712 964.534851,1223.905640 
	C974.920959,1223.852783 977.218567,1221.462524 976.977356,1211.165405 
	C976.799927,1203.587891 974.757385,1201.364380 967.311096,1200.768555 
	C965.321350,1200.609253 963.317505,1200.571533 961.320129,1200.570557 
	C934.656433,1200.558105 907.992798,1200.548950 881.329102,1200.580566 
	C878.334534,1200.584106 875.335876,1200.782349 872.346863,1200.997803 
	C867.796631,1201.325684 865.470215,1203.961426 865.078125,1208.385742 
	C864.931458,1210.041504 864.932556,1211.716309 864.962524,1213.380859 
	C865.104431,1221.253906 867.543091,1223.764038 875.575256,1223.877075 
	C884.572510,1224.003784 893.572876,1223.902100 902.571716,1223.935059 
	C903.995728,1223.940308 905.419067,1224.130981 907.045959,1224.250854 
	C907.045959,1226.526978 907.045837,1228.347290 907.046021,1230.167603 
	C907.048157,1255.164795 906.916870,1280.163574 907.203979,1305.157471 
	C907.244629,1308.693115 908.257385,1313.603394 910.674255,1315.447510 
	C916.309265,1319.747314 923.471130,1318.959229 929.784424,1316.539551 
	C934.951782,1314.559326 934.856934,1309.228394 934.864929,1304.495117 
	C934.889099,1290.163452 934.876221,1275.831665 934.877930,1260.500000 
M754.115601,1270.500000 
	C754.109680,1251.697754 754.147522,1232.895264 754.080261,1214.093262 
	C754.043823,1203.904297 751.167786,1201.073486 741.045532,1200.922119 
	C739.383301,1200.897217 737.711731,1200.895020 736.057617,1201.036499 
	C729.243103,1201.619385 726.033508,1204.770386 726.015381,1211.579468 
	C725.930969,1243.193481 725.929382,1274.807983 726.020630,1306.421997 
	C726.042786,1314.091309 729.221741,1317.273193 736.853455,1317.894287 
	C739.001404,1318.069092 741.184692,1318.050903 743.335938,1317.898071 
	C750.990723,1317.354492 753.998352,1314.213013 754.065247,1306.441895 
	C754.165405,1294.795410 754.106750,1283.147339 754.115601,1270.500000 
M1052.658813,1389.574585 
	C1052.658813,1387.075073 1052.658813,1384.575562 1052.658813,1382.076050 
	C1055.066284,1383.341431 1056.193237,1384.750488 1057.281372,1386.188843 
	C1060.695068,1390.700562 1063.799683,1395.499756 1067.649780,1399.600098 
	C1069.110718,1401.156128 1072.257568,1401.475220 1074.673218,1401.592285 
	C1075.466187,1401.630493 1077.095947,1399.267822 1077.118896,1397.981201 
	C1077.302246,1387.664795 1077.341675,1377.338257 1076.994263,1367.029175 
	C1076.947754,1365.651001 1074.684204,1363.570435 1073.109985,1363.181885 
	C1069.796387,1362.364014 1067.776245,1363.973267 1067.869629,1367.780762 
	C1067.999634,1373.083008 1067.902344,1378.390869 1067.902344,1384.896973 
	C1066.374268,1383.277222 1065.877563,1382.843750 1065.491577,1382.327393 
	C1061.307739,1376.729248 1057.425293,1370.866333 1052.805420,1365.656616 
	C1051.326904,1363.989136 1047.900269,1363.546143 1045.384277,1363.592773 
	C1044.574097,1363.607666 1043.201172,1366.969482 1043.155518,1368.826538 
	C1042.926270,1378.143799 1043.097290,1387.470215 1043.027100,1396.792480 
	C1043.003540,1399.920410 1043.875732,1401.920898 1047.443848,1402.033081 
	C1051.035278,1402.145752 1052.707764,1400.561157 1052.655151,1397.008545 
	C1052.623047,1394.844849 1052.655151,1392.680176 1052.658813,1389.574585 
M877.214722,1379.509521 
	C877.215454,1384.998291 877.359619,1390.491943 877.172424,1395.974365 
	C877.017151,1400.521606 878.973816,1402.227051 883.448608,1402.067627 
	C889.760986,1401.842529 896.088928,1401.927246 902.407166,1402.043823 
	C905.719543,1402.104980 907.890625,1401.291748 907.974426,1397.445068 
	C908.063843,1393.343628 905.760681,1392.362061 902.252930,1392.419189 
	C897.315125,1392.499390 892.375061,1392.439453 887.195496,1392.439453 
	C887.195496,1390.445923 887.195496,1389.045776 887.195496,1387.123657 
	C890.205322,1387.123657 892.995972,1387.057251 895.782043,1387.140503 
	C899.223389,1387.243408 902.119263,1387.044434 902.063843,1382.328491 
	C902.007263,1377.504272 898.819519,1377.698120 895.554749,1377.689209 
	C893.226746,1377.682739 890.897827,1377.671021 888.571716,1377.592407 
	C888.138123,1377.577759 887.715698,1377.233643 886.971008,1376.899048 
	C887.088257,1375.508423 887.203796,1374.138428 887.346741,1372.443848 
	C893.118835,1372.443848 898.432678,1372.506714 903.744080,1372.420166 
	C906.900757,1372.368652 908.018066,1370.425781 907.964355,1367.462158 
	C907.908508,1364.382935 906.535767,1362.917114 903.372009,1362.951416 
	C896.220825,1363.029053 889.068115,1363.016357 881.916504,1362.968506 
	C878.764954,1362.947510 877.327942,1364.574951 877.262329,1367.539185 
	C877.181458,1371.196655 877.225037,1374.856812 877.214722,1379.509521 
M1081.935547,1374.623291 
	C1079.103271,1382.726685 1080.382690,1390.086792 1086.261963,1396.382690 
	C1091.934814,1402.457642 1099.048340,1403.776001 1106.885254,1401.802856 
	C1112.866333,1400.296875 1115.092407,1397.333984 1115.103638,1391.217773 
	C1115.108887,1388.386963 1115.519409,1385.460083 1114.917969,1382.761230 
	C1114.552856,1381.122681 1112.796387,1378.880981 1111.329712,1378.588013 
	C1108.128662,1377.948730 1104.648071,1378.001709 1101.417725,1378.559692 
	C1100.104858,1378.786377 1098.296265,1381.049072 1098.272827,1382.412354 
	C1098.250732,1383.694092 1100.064331,1385.709961 1101.463013,1386.147949 
	C1103.535522,1386.796631 1106.420898,1386.514038 1105.397949,1389.579224 
	C1104.895996,1391.083130 1102.279053,1392.722900 1100.544189,1392.810303 
	C1095.947510,1393.041992 1092.719727,1390.382446 1090.962646,1386.176147 
	C1089.182007,1381.913330 1089.848389,1377.937500 1093.227173,1374.728394 
	C1096.741821,1371.390381 1101.038940,1370.631592 1105.160156,1373.097168 
	C1109.015991,1375.404053 1111.367920,1374.416870 1113.235474,1370.876587 
	C1115.298096,1366.966064 1111.941406,1365.890625 1109.601318,1364.608154 
	C1099.597534,1359.126465 1088.454956,1362.958862 1081.935547,1374.623291 
M799.246094,1394.128906 
	C806.019348,1402.335938 814.637512,1404.856689 822.996277,1401.075684 
	C830.795044,1397.548096 835.548279,1388.552612 834.304932,1379.674927 
	C833.006958,1370.407104 826.215027,1363.531860 816.892395,1362.573486 
	C809.502502,1361.813965 803.415344,1364.745361 799.400574,1370.920166 
	C794.679443,1378.181152 794.411316,1385.856934 799.246094,1394.128906 
M958.615601,1378.230469 
	C955.775696,1369.024170 949.096191,1363.348145 940.533325,1363.015747 
	C936.885315,1362.874146 933.226440,1363.032837 929.575500,1362.938232 
	C926.168579,1362.850220 924.838440,1364.441162 924.888062,1367.789062 
	C924.996338,1375.093872 924.879211,1382.401733 924.924377,1389.707886 
	C925.008484,1403.299438 923.303711,1401.975586 937.133057,1401.984375 
	C951.529663,1401.993652 959.572266,1393.432129 958.615601,1378.230469 
M958.293396,1398.271484 
	C962.283020,1404.038696 965.471619,1403.873657 968.589417,1397.787109 
	C969.251221,1396.495239 970.043030,1394.329468 970.926147,1394.250122 
	C975.363403,1393.851440 979.907532,1393.604370 984.287476,1394.214233 
	C985.670105,1394.406738 986.897583,1397.305542 987.775330,1399.164551 
	C989.146240,1402.067871 990.911499,1403.328247 994.047607,1401.816284 
	C997.140320,1400.324951 998.062317,1398.336914 996.408569,1395.018066 
	C991.749023,1385.667236 987.409119,1376.155640 982.656799,1366.853882 
	C981.817810,1365.211670 979.620239,1363.320679 978.007812,1363.281372 
	C976.389221,1363.241943 973.993958,1365.008667 973.187073,1366.611938 
	C968.045105,1376.828247 963.248047,1387.218140 958.293396,1398.271484 
M1166.659790,1402.039062 
	C1170.698853,1400.572754 1171.380493,1398.211670 1169.390869,1394.325806 
	C1164.856201,1385.469238 1160.806030,1376.363647 1156.215088,1367.537964 
	C1155.229370,1365.642822 1152.742065,1363.287109 1151.030640,1363.352295 
	C1149.238647,1363.420532 1146.928101,1365.827515 1145.919678,1367.770386 
	C1141.412964,1376.453613 1137.340210,1385.360840 1133.001831,1394.133423 
	C1131.516724,1397.136475 1130.794067,1399.650146 1134.539917,1401.593384 
	C1138.608765,1403.703857 1140.530884,1401.452393 1141.623901,1398.139893 
	C1142.835205,1394.469604 1145.147339,1393.287476 1148.768921,1393.804688 
	C1150.071289,1393.990723 1151.450806,1394.010376 1152.746216,1393.802002 
	C1156.938477,1393.127319 1159.480591,1394.576538 1161.098877,1398.703125 
	C1161.717041,1400.279175 1164.291748,1401.087646 1166.659790,1402.039062 
M1228.491089,1390.241089 
	C1236.065674,1386.318115 1238.936523,1380.869629 1237.181152,1373.748169 
	C1235.473755,1366.821655 1230.074951,1363.020630 1221.822998,1362.967651 
	C1218.490845,1362.946289 1215.157227,1363.031372 1211.826294,1362.967041 
	C1208.648804,1362.905640 1207.239502,1364.535156 1207.234863,1367.546143 
	C1207.219604,1377.543091 1207.204224,1387.540161 1207.261230,1397.536743 
	C1207.280884,1400.968994 1209.378174,1402.086426 1212.547852,1401.990356 
	C1215.733154,1401.893555 1217.005127,1400.236938 1216.923462,1397.208984 
	C1216.875000,1395.407959 1216.914795,1393.604492 1216.914795,1391.772583 
	C1220.873657,1391.329712 1224.319702,1390.944092 1228.491089,1390.241089 
M1186.392822,1362.970581 
	C1183.729248,1362.974854 1181.062012,1363.069092 1178.402954,1362.961060 
	C1174.975098,1362.822021 1173.539185,1364.535156 1173.540649,1367.776978 
	C1173.544922,1377.598511 1173.539429,1387.420044 1173.559937,1397.241577 
	C1173.566895,1400.518555 1175.170288,1402.046265 1178.531372,1401.997437 
	C1182.041626,1401.946411 1183.197266,1400.146973 1183.060791,1396.914795 
	C1182.986450,1395.151367 1183.189087,1393.376221 1183.290527,1391.063599 
	C1186.166870,1391.063599 1188.640503,1391.224243 1191.086548,1391.032715 
	C1197.693970,1390.515137 1202.920166,1385.481201 1203.808472,1378.967896 
	C1205.065918,1369.747192 1198.231567,1363.111816 1186.392822,1362.970581 
M839.684631,1378.895996 
	C842.625671,1384.866699 845.328003,1390.974365 848.631104,1396.737549 
	C849.866577,1398.893188 852.393188,1401.399048 854.533081,1401.600464 
	C856.237793,1401.761230 858.908875,1399.014648 860.009521,1396.950195 
	C864.548584,1388.436401 868.579956,1379.653809 872.953125,1371.048950 
	C874.640198,1367.729370 874.994080,1365.138428 870.980286,1363.341797 
	C867.046631,1361.581055 865.644104,1363.941528 864.303467,1366.963135 
	C861.192200,1373.975830 857.946289,1380.928955 854.357300,1388.775513 
	C850.495605,1380.394287 847.075073,1373.015503 843.697510,1365.617065 
	C842.408142,1362.792847 840.449707,1362.008789 837.648743,1363.390015 
	C834.895874,1364.747681 833.430359,1366.554810 835.115601,1369.742188 
	C836.592773,1372.536011 837.914612,1375.411987 839.684631,1378.895996 
M1003.052979,1398.016968 
	C1003.147278,1401.776978 1005.665771,1402.119385 1008.581909,1401.989746 
	C1012.083191,1401.834106 1012.402039,1399.376709 1012.409668,1396.741333 
	C1012.433960,1388.310059 1012.418701,1379.878784 1012.418701,1370.764282 
	C1016.048889,1370.764282 1019.152039,1370.774170 1022.255005,1370.761475 
	C1025.080566,1370.750000 1027.051758,1369.323975 1026.254395,1366.539795 
	C1025.833252,1365.068848 1023.600769,1363.148926 1022.132996,1363.102173 
	C1012.509460,1362.796265 1002.871277,1362.971191 993.238098,1362.930542 
	C990.709473,1362.919800 989.098022,1363.657227 989.006897,1366.536987 
	C988.911499,1369.553589 990.405945,1370.768188 993.224060,1370.769653 
	C996.332031,1370.771362 999.440063,1370.770020 1003.042725,1370.770020 
	C1003.042725,1379.918335 1003.042725,1388.512573 1003.052979,1398.016968 
M765.202759,1373.595703 
	C765.204590,1381.255127 765.252502,1388.915039 765.188538,1396.573975 
	C765.157593,1400.274780 766.659546,1402.125244 770.542847,1402.047241 
	C776.534851,1401.926880 782.531128,1401.988159 788.525269,1402.028198 
	C791.155762,1402.045776 793.066101,1401.518677 793.143433,1398.258423 
	C793.224243,1394.851196 791.457825,1393.957031 788.474304,1394.013184 
	C784.052917,1394.096558 779.628784,1394.034790 774.910767,1394.034790 
	C774.910767,1384.668457 774.896118,1376.028198 774.918457,1367.387817 
	C774.926697,1364.194580 773.259216,1363.007568 770.220398,1362.950806 
	C767.218506,1362.894775 765.383240,1363.976929 765.242737,1367.136597 
	C765.161499,1368.964844 765.211853,1370.799072 765.202759,1373.595703 
M1032.836670,1401.954346 
	C1037.440552,1402.580200 1039.090454,1400.513672 1038.987793,1395.970459 
	C1038.776978,1386.646362 1038.880615,1377.313843 1038.945312,1367.985352 
	C1038.967773,1364.747314 1037.792236,1363.029419 1034.315308,1362.940552 
	C1030.639038,1362.846558 1029.183716,1364.546631 1029.197388,1368.044189 
	C1029.234985,1377.706055 1029.082886,1387.371704 1029.337402,1397.026978 
	C1029.379883,1398.644409 1031.079956,1400.218384 1032.836670,1401.954346 
z"/>
<path fill="#FD4B66" opacity="1.000000" stroke="none" 
	d="
M1206.607056,645.788818 
	C1213.859863,639.749512 1221.283813,633.902466 1228.326904,627.627930 
	C1240.227417,617.026062 1251.843262,606.105042 1263.684326,595.435547 
	C1266.088135,593.269531 1268.959839,591.622986 1271.615845,589.737061 
	C1272.167358,589.963928 1272.718872,590.190796 1273.270386,590.417725 
	C1272.622925,593.213501 1272.185303,596.078125 1271.294067,598.794006 
	C1265.388428,616.793579 1254.040771,631.245667 1241.167480,644.688232 
	C1238.292969,647.689758 1235.464722,650.735474 1232.201782,654.161011 
	C1231.430420,654.947571 1231.072510,655.333923 1230.439209,655.898438 
	C1230.605225,656.256531 1231.046997,656.436401 1231.750977,656.506104 
	C1232.424927,656.019531 1232.836426,655.643250 1233.248047,655.266846 
	C1247.302246,644.898132 1261.295898,634.445251 1275.473511,624.248047 
	C1277.695801,622.649658 1280.753052,622.212463 1283.424316,621.238342 
	C1283.016357,623.861694 1283.114014,626.696777 1282.118774,629.074280 
	C1275.393188,645.140564 1265.824097,659.163147 1251.400635,670.297119 
	C1250.756470,671.058472 1250.540527,671.385559 1250.324585,671.712646 
	C1250.941040,671.540955 1251.557495,671.369202 1252.173950,671.197510 
	C1257.093872,669.224060 1261.928833,666.977478 1266.974121,665.406860 
	C1269.092407,664.747498 1271.971558,664.918396 1273.871826,665.916748 
	C1274.705322,666.354675 1274.572266,670.069214 1273.818726,671.846802 
	C1270.210327,680.357788 1267.154175,689.325989 1262.084717,696.918335 
	C1258.528198,702.244507 1252.050659,705.620178 1246.699097,710.013306 
	C1248.814819,709.646973 1251.057007,709.215454 1253.313232,708.880127 
	C1255.597534,708.540771 1257.910034,707.978699 1260.185425,708.078552 
	C1264.584106,708.271667 1266.867432,710.788147 1265.737061,715.001709 
	C1262.402344,727.431213 1260.637817,740.575989 1251.130737,750.263672 
	C1260.838867,757.255737 1260.345825,767.281311 1259.676514,777.345764 
	C1259.611206,778.327393 1259.216309,779.282410 1259.065552,780.263794 
	C1257.506470,790.420410 1253.574219,793.860962 1243.500732,793.853149 
	C1242.522339,793.852417 1241.543945,793.853088 1240.519531,793.853088 
	C1240.611206,794.320435 1240.565674,794.773621 1240.742065,794.889771 
	C1252.643188,802.726013 1255.322144,820.186462 1245.929565,831.351074 
	C1244.255615,833.340942 1240.891968,834.089600 1238.161987,834.942505 
	C1236.544434,835.447937 1234.639771,835.035034 1231.515625,835.035034 
	C1241.334595,842.207458 1240.398560,850.701782 1237.079956,859.690918 
	C1232.733765,871.463806 1228.933594,873.244080 1216.489624,868.483276 
	C1215.307129,868.187317 1214.732300,868.213989 1214.157349,868.240601 
	C1214.528564,868.706726 1214.899902,869.172852 1215.271118,869.639038 
	C1225.803345,878.160645 1222.440552,893.830566 1207.630249,897.937561 
	C1206.528564,907.280701 1203.894165,910.096802 1193.151367,913.169739 
	C1193.033325,920.240479 1187.927979,922.163574 1182.089600,923.646240 
	C1180.177979,924.131714 1178.349854,925.668091 1176.907837,927.139648 
	C1173.252319,930.870300 1168.826904,931.943420 1163.808350,932.110229 
	C1161.822998,932.176208 1159.874268,933.473877 1157.921021,934.241760 
	C1157.626343,934.357544 1157.418091,934.790955 1157.136841,934.828125 
	C1148.801270,935.931335 1141.242554,940.735474 1132.402710,939.683777 
	C1128.079590,939.169373 1123.644531,939.594727 1118.194702,939.594727 
	C1121.132568,946.109680 1123.611572,951.653809 1126.129517,957.180176 
	C1130.523926,966.824707 1134.630493,976.619385 1139.490234,986.024353 
	C1141.721802,990.343323 1145.135742,994.192810 1148.553589,997.734009 
	C1168.105713,1017.991333 1187.822998,1038.089355 1207.470825,1058.254395 
	C1208.359985,1059.166870 1209.122070,1060.202881 1210.658325,1062.033203 
	C1200.704102,1061.917969 1192.792236,1058.888428 1184.812378,1053.469727 
	C1185.153198,1055.300293 1185.345581,1056.333252 1185.702759,1058.251587 
	C1179.576294,1058.581787 1173.551514,1059.031250 1167.520630,1059.135010 
	C1166.182861,1059.157959 1164.369873,1058.318481 1163.544067,1057.270752 
	C1153.557007,1044.598267 1144.038330,1031.537720 1133.619995,1019.236816 
	C1130.801514,1015.909119 1125.406250,1014.723389 1121.136841,1012.672791 
	C1108.123657,1006.422729 1095.530640,999.495850 1083.856445,990.287231 
	C1079.993896,993.588989 1074.941528,996.122437 1076.176758,1003.421997 
	C1076.858521,1007.451477 1071.480713,1011.799072 1065.313477,1012.793030 
	C1056.947266,1014.141296 1048.511963,1015.188293 1040.066650,1015.882935 
	C1031.143311,1016.616882 1022.173706,1016.785339 1011.297913,1017.290222 
	C1015.238464,1021.461914 1018.041565,1024.955444 1021.386536,1027.815430 
	C1024.434204,1030.421021 1026.502930,1033.052002 1027.055298,1037.245605 
	C1027.308350,1039.166382 1029.425415,1041.530273 1031.304565,1042.443970 
	C1055.245728,1054.085327 1079.297485,1065.499268 1103.320801,1076.971436 
	C1111.276855,1080.770752 1119.308228,1084.423096 1127.150024,1088.445068 
	C1130.172119,1089.994995 1132.555908,1089.893066 1135.480225,1088.295776 
	C1140.292114,1085.667236 1145.242065,1083.204102 1150.362671,1081.280151 
	C1151.936401,1080.688843 1155.024902,1081.448120 1156.069336,1082.708252 
	C1158.016968,1085.058228 1156.169556,1086.880981 1153.735962,1088.022705 
	C1149.531982,1089.994995 1145.372803,1092.062866 1140.423584,1094.465088 
	C1144.507690,1096.442993 1147.796021,1098.310547 1151.296997,1099.601074 
	C1152.781982,1100.148560 1154.899536,1099.927856 1156.408325,1099.292969 
	C1161.772949,1097.035034 1167.048096,1094.546021 1172.258301,1091.946533 
	C1174.981079,1090.588135 1177.585571,1090.691284 1178.378784,1093.559814 
	C1178.771729,1094.980591 1177.062744,1097.812622 1175.531860,1098.769653 
	C1171.904175,1101.037354 1167.814819,1102.566528 1163.820923,1104.437012 
	C1170.086426,1110.544434 1175.074463,1111.431641 1182.225830,1107.929688 
	C1186.260620,1105.953857 1190.206299,1103.692749 1194.429199,1102.257324 
	C1196.042358,1101.708984 1199.096069,1102.477783 1200.122070,1103.751221 
	C1202.042603,1106.134521 1200.145996,1107.952637 1197.709229,1109.038818 
	C1195.582153,1109.987061 1193.483154,1111.000244 1191.391113,1112.024414 
	C1189.312622,1113.042114 1187.258545,1114.109619 1184.699463,1115.405396 
	C1187.234863,1116.711426 1189.258301,1117.763184 1191.290283,1118.798096 
	C1193.944214,1120.149780 1197.519287,1121.270874 1195.653198,1125.214111 
	C1193.554932,1129.647827 1190.344360,1126.859863 1187.594727,1125.659668 
	C1185.506958,1124.748169 1183.499390,1123.652466 1180.253662,1122.042236 
	C1181.499390,1127.612793 1182.373901,1131.942139 1183.456665,1136.218994 
	C1184.177979,1139.067871 1184.428101,1141.949097 1181.023682,1142.724487 
	C1177.662842,1143.489868 1176.548706,1140.823242 1175.938721,1137.949463 
	C1175.041260,1133.720459 1173.955688,1129.531372 1172.966675,1125.321411 
	C1171.014893,1117.013916 1169.306152,1115.366211 1159.555054,1112.974487 
	C1160.657593,1117.607666 1161.720947,1121.901489 1162.690918,1126.216553 
	C1163.298584,1128.919800 1163.732422,1131.956055 1160.207886,1132.763916 
	C1156.763428,1133.553467 1155.711914,1130.835693 1155.074707,1128.032227 
	C1154.226807,1124.301758 1152.651123,1120.608154 1152.538086,1116.864014 
	C1152.232910,1106.744995 1144.655762,1104.783691 1136.661987,1101.730591 
	C1137.847900,1106.748291 1139.009521,1111.039551 1139.834717,1115.394531 
	C1140.309448,1117.900024 1141.276245,1121.104370 1137.424072,1121.894287 
	C1133.841797,1122.628662 1132.978027,1119.797119 1132.323120,1117.100220 
	C1130.949097,1111.442749 1129.780762,1105.727417 1128.155518,1100.144165 
	C1127.679199,1098.507446 1126.249756,1096.612427 1124.749268,1095.887939 
	C1092.234253,1080.190918 1059.648682,1064.640503 1027.073364,1049.068237 
	C1017.329773,1044.410522 1007.605164,1039.710938 997.803894,1035.177368 
	C995.816467,1034.258179 994.000183,1032.222290 991.220154,1034.900757 
	C988.574036,1037.450073 987.401672,1039.711670 988.697327,1043.139648 
	C989.097351,1044.198242 989.385986,1045.299072 989.725586,1046.380493 
	C989.378540,1046.623657 989.031494,1046.866943 988.684448,1047.110229 
	C986.669128,1044.301270 984.653870,1041.492432 982.638550,1038.683594 
	C982.128967,1038.791504 981.619324,1038.899414 981.109741,1039.007324 
	C981.612793,1041.833496 982.115906,1044.659668 982.569092,1047.205688 
	C975.736267,1045.848755 974.545898,1036.224487 981.193848,1027.344727 
	C978.669800,1026.120850 976.224487,1024.935181 973.818298,1023.768433 
	C969.055725,1030.623047 969.055725,1030.623047 972.938721,1037.646606 
	C968.363220,1037.083008 963.286133,1037.792969 961.252930,1032.707642 
	C959.397278,1028.066040 958.558960,1023.026245 962.764221,1018.359497 
	C931.358459,1003.366638 900.057617,988.423889 868.019348,973.129089 
	C868.553650,980.264954 866.547058,985.368713 860.252319,987.848816 
	C852.362488,990.957275 844.282776,986.429504 840.066650,977.867554 
	C836.216187,970.048157 831.424438,962.662842 826.653625,955.343018 
	C825.147827,953.032776 822.370911,951.551086 820.209106,949.718384 
	C819.429565,950.557983 819.071045,950.762634 819.065857,950.975830 
	C818.854797,959.645447 816.159607,963.622070 809.449829,965.106873 
	C802.440613,966.657898 795.552551,963.205444 792.140991,956.366394 
	C789.253174,950.577393 786.886841,944.465210 783.436340,939.038635 
	C780.323486,934.143005 777.309570,928.625854 770.842590,927.030212 
	C770.598877,927.360718 770.254150,927.610718 770.261658,927.849670 
	C770.504456,935.554688 767.719727,940.073059 761.653870,941.753418 
	C754.583496,943.711975 747.230103,940.372192 743.676758,933.384033 
	C741.347595,928.803589 739.548279,923.936035 737.001221,919.489441 
	C734.871521,915.771423 732.089905,912.408203 729.436035,909.013733 
	C726.104736,904.752991 727.468811,899.053650 732.459839,899.305298 
	C742.984192,899.835693 752.114197,894.597534 762.161865,893.582275 
	C768.465942,892.945312 775.977905,896.353333 778.515442,901.094543 
	C781.956177,907.523682 780.267090,912.429993 772.395508,918.734009 
	C779.921570,923.618103 787.811218,922.784790 795.901489,920.622437 
	C801.329407,919.171753 806.822998,917.378967 812.354126,917.108887 
	C816.047302,916.928467 820.303040,918.440369 823.528564,920.446533 
	C831.637695,925.489929 830.454773,935.115173 821.120605,941.687866 
	C827.849121,947.043396 835.336304,945.907959 842.727295,944.392212 
	C847.271240,943.460388 851.652100,941.760803 856.154907,940.594116 
	C862.554199,938.936157 868.506470,940.329529 873.553650,944.394653 
	C880.157959,949.713928 879.005249,957.253662 870.191833,965.509521 
	C902.898804,981.177795 935.357849,996.727356 968.278259,1012.497925 
	C969.482910,1010.767822 970.550903,1009.234070 971.948486,1007.226868 
	C967.021240,1005.490112 962.743958,1003.613770 958.278625,1002.474609 
	C942.012329,998.324890 928.825012,988.777832 916.125244,978.505493 
	C907.350769,971.408203 898.804016,963.981079 890.630249,956.202515 
	C881.482788,947.497437 874.598694,937.170593 870.843445,924.918274 
	C866.273132,910.007019 859.605591,895.735840 857.930237,879.942932 
	C857.273682,873.753357 854.246277,871.540527 848.168396,870.816956 
	C846.688660,870.640808 845.111145,870.635315 843.764709,870.091003 
	C830.694153,864.806763 820.819153,872.548340 810.385803,878.117371 
	C808.223633,879.271545 805.933167,880.185242 802.468567,881.776062 
	C803.921692,876.910950 805.018311,873.239502 806.372009,868.707275 
	C802.786072,870.001465 799.672791,871.125061 796.559509,872.248657 
	C796.128296,871.902710 795.697144,871.556763 795.265991,871.210815 
	C797.666992,866.675476 799.681091,861.875549 802.559631,857.666809 
	C806.892822,851.331116 810.249695,845.188416 811.338379,837.071655 
	C814.744080,811.681152 827.466431,791.829773 851.484253,781.489502 
	C865.260010,775.558716 880.111816,772.615540 895.131531,778.655640 
	C901.568115,781.244080 908.469055,782.903992 914.524353,786.164429 
	C925.096680,791.857178 931.080200,802.255920 938.152283,811.454468 
	C939.049133,812.620911 939.923279,813.804749 941.138611,815.419983 
	C944.745667,810.530396 948.814270,806.468445 946.507874,799.773315 
	C945.794495,797.702271 946.032288,795.106323 946.463013,792.871765 
	C948.628540,781.637817 950.510071,770.313354 953.441101,759.272888 
	C956.375916,748.218506 960.476135,737.476135 963.986877,726.571655 
	C970.306274,706.943176 976.553589,687.291443 982.866089,667.660645 
	C983.858826,664.573608 985.035828,661.545837 986.598755,658.694458 
	C982.486206,679.130981 978.373657,699.567566 974.261108,720.004150 
	C974.871033,720.152954 975.481018,720.301758 976.090942,720.450562 
	C978.856567,710.428528 981.622192,700.406433 984.387817,690.384338 
	C984.635376,690.445618 984.882996,690.506958 985.130615,690.568298 
	C983.306030,704.539856 981.481445,718.511414 979.656921,732.482910 
	C985.702026,723.330261 985.169128,712.580566 988.198914,702.592590 
	C987.610535,710.211060 987.022156,717.829590 986.391235,725.999146 
	C987.763611,725.373169 988.545898,725.016357 989.806946,724.441162 
	C989.806946,728.475708 989.999146,732.246033 989.772034,735.990845 
	C988.994812,748.808655 991.469055,761.415100 994.169556,773.649353 
	C997.337585,788.001404 1003.216797,801.755066 1007.957153,815.878357 
	C1016.333069,807.790955 1023.872192,799.557983 1032.415161,792.548401 
	C1039.973022,786.347229 1045.047852,779.395081 1046.530762,769.626282 
	C1046.950317,766.862000 1048.970093,764.180603 1050.723022,761.805969 
	C1058.920044,750.702148 1067.092285,739.570801 1075.628174,728.728760 
	C1087.131836,714.117126 1098.728149,699.565613 1110.714600,685.350769 
	C1122.815918,670.999634 1135.723145,657.326721 1147.777832,642.938171 
	C1170.416138,615.916748 1192.697510,588.596252 1215.119263,561.393555 
	C1218.188232,557.670288 1221.074341,553.784607 1224.315063,550.219421 
	C1225.877930,548.500061 1228.068604,547.351135 1229.974976,545.943970 
	C1230.349121,546.198120 1230.723389,546.452209 1231.097656,546.706360 
	C1230.943970,548.445557 1231.051758,550.256775 1230.594971,551.912354 
	C1227.047485,564.770752 1222.894531,577.350708 1215.205566,588.516479 
	C1205.963745,601.937439 1196.999390,615.549438 1187.579224,629.563965 
	C1187.045288,630.570557 1186.846924,631.091858 1186.433838,631.773804 
	C1186.234863,632.180481 1186.250854,632.426514 1186.266724,632.672485 
	C1186.531494,632.470764 1186.796387,632.269165 1187.326904,631.995667 
	C1187.939697,631.507324 1188.286743,631.090881 1188.633789,630.674377 
	C1203.684448,614.818054 1218.731079,598.958130 1233.788452,583.108154 
	C1237.327393,579.382996 1240.788574,575.572815 1244.502808,572.029480 
	C1246.715576,569.918457 1249.351562,568.251099 1251.797363,566.384277 
	C1252.343872,566.661743 1252.890381,566.939270 1253.436890,567.216797 
	C1253.017212,569.230713 1252.730713,571.283325 1252.157593,573.252502 
	C1246.400635,593.030212 1234.080444,608.919067 1221.557495,624.673401 
	C1216.400757,631.160889 1211.138062,637.564331 1205.520020,644.434692 
	C1204.654297,645.482971 1204.192017,646.102417 1203.501709,646.818726 
	C1202.985718,647.112183 1202.804199,647.380859 1202.500000,647.816589 
	C1201.976562,648.102722 1201.790649,648.369141 1201.488770,648.847961 
	C1201.161621,649.310303 1201.058594,649.635620 1200.716797,650.033325 
	C1200.521362,650.361267 1200.564819,650.616943 1200.608276,650.872559 
	C1200.826782,650.660522 1201.045166,650.448425 1201.511353,650.232788 
	C1202.061279,650.084839 1202.315796,649.880920 1202.724854,649.503967 
	C1203.162476,649.190369 1203.368286,648.963440 1203.750732,648.584717 
	C1204.184326,648.233276 1204.383545,647.984497 1204.798828,647.560669 
	C1205.563965,646.868103 1206.085571,646.328430 1206.607056,645.788818 
M1011.963684,1033.435669 
	C1013.832458,1034.251343 1015.701294,1035.067017 1017.889832,1036.022095 
	C1015.403564,1025.163330 1006.369385,1020.941895 998.240662,1026.790771 
	C1002.728699,1028.970825 1007.001892,1031.046509 1011.963684,1033.435669 
M978.190735,1017.221619 
	C981.566833,1018.790283 984.942871,1020.358948 989.067566,1022.275452 
	C989.067566,1019.640137 988.922424,1017.843933 989.096191,1016.079102 
	C989.532593,1011.647400 986.950012,1009.775146 983.208496,1010.146423 
	C979.669495,1010.497620 977.093872,1012.685303 978.190735,1017.221619 
M985.984375,733.589355 
	C985.984375,736.834290 985.984375,740.079224 985.984375,743.324097 
	C986.288879,743.310852 986.593384,743.297546 986.897888,743.284241 
	C986.897888,737.964050 986.897888,732.643799 986.897888,727.323608 
	C986.591003,727.320251 986.284180,727.316895 985.977295,727.313538 
	C985.977295,729.088806 985.977295,730.864136 985.984375,733.589355 
M979.219482,734.622498 
	C979.385437,734.888672 979.551392,735.154907 979.717346,735.421082 
	C979.676025,735.011902 979.634705,734.602783 979.219482,734.622498 
z"/>
<path fill="#FD4C67" opacity="1.000000" stroke="none" 
	d="
M569.315247,1316.406738 
	C553.473572,1316.944214 538.030579,1317.658691 522.589172,1317.623535 
	C515.877563,1317.608276 513.644653,1314.791992 512.652283,1308.071777 
	C512.338013,1305.943359 512.259155,1303.764282 512.257324,1301.608154 
	C512.233215,1272.811035 512.227051,1244.014038 512.250000,1215.216919 
	C512.259094,1203.814941 514.929871,1200.705566 526.217407,1200.689819 
	C539.677734,1200.671143 553.361877,1199.924683 566.553711,1202.002808 
	C594.213379,1206.360718 613.947266,1229.891724 614.678223,1257.096558 
	C615.424866,1284.883667 596.750244,1309.463867 569.315247,1316.406738 
M540.821777,1236.566284 
	C540.821777,1254.094727 540.821777,1271.623291 540.821777,1289.330933 
	C547.050049,1289.330933 552.371033,1289.521362 557.673889,1289.292236 
	C569.734985,1288.771362 581.209534,1280.104736 584.782410,1269.061157 
	C588.797791,1256.650146 584.662598,1243.590332 574.513123,1235.508301 
	C564.412048,1227.464600 552.776184,1229.062744 540.821594,1229.274048 
	C540.821594,1231.656616 540.821594,1233.621216 540.821777,1236.566284 
z"/>
<path fill="#FD4B66" opacity="1.000000" stroke="none" 
	d="
M1087.283447,1250.729004 
	C1092.087280,1285.901245 1064.966919,1317.487793 1030.002563,1317.895508 
	C1019.840637,1318.013916 1009.675720,1317.977905 999.512939,1317.902466 
	C988.866394,1317.823364 985.923950,1315.451660 985.780762,1304.739746 
	C985.428955,1278.420654 985.570435,1252.094482 985.561707,1225.771240 
	C985.559937,1220.443970 985.665100,1215.111572 985.914673,1209.790771 
	C986.139771,1204.992188 988.881714,1201.448120 993.513916,1201.311035 
	C1011.107300,1200.789917 1029.130493,1198.074219 1046.139282,1203.421753 
	C1068.758667,1210.533081 1083.321045,1226.077393 1087.283447,1250.729004 
M1013.973145,1240.519775 
	C1013.973145,1256.751465 1013.973145,1272.983154 1013.973145,1289.138306 
	C1020.917297,1289.138306 1027.277222,1289.781982 1033.456787,1288.999756 
	C1045.112549,1287.524414 1053.675903,1280.885132 1057.561035,1269.898071 
	C1061.516479,1258.712280 1059.809326,1247.948730 1051.387939,1238.807129 
	C1041.043335,1227.578003 1027.730713,1228.644165 1013.973145,1229.355225 
	C1013.973145,1232.942871 1013.973145,1236.235107 1013.973145,1240.519775 
z"/>
<path fill="#FD4C67" opacity="1.000000" stroke="none" 
	d="
M1313.166016,1200.894531 
	C1335.128784,1200.889893 1356.613892,1200.893677 1378.099121,1200.888916 
	C1382.899902,1200.887817 1388.014038,1201.010010 1389.704834,1206.506348 
	C1391.791382,1213.288452 1392.712158,1220.541504 1387.534790,1226.376709 
	C1385.889160,1228.231323 1382.122314,1228.864136 1379.307129,1228.910767 
	C1364.154907,1229.161621 1348.996826,1229.052002 1333.840698,1229.066162 
	C1332.040405,1229.067871 1330.240112,1229.066406 1328.142334,1229.066406 
	C1328.142334,1234.429688 1328.142334,1239.355835 1328.142334,1245.129883 
	C1329.619873,1245.129883 1331.196289,1245.129028 1332.772705,1245.130005 
	C1342.266113,1245.135254 1351.760742,1245.052856 1361.252686,1245.173218 
	C1369.483887,1245.277466 1372.313232,1247.925415 1373.219604,1256.009644 
	C1373.404297,1257.656860 1373.537842,1259.337036 1373.432739,1260.985352 
	C1372.830322,1270.440796 1369.927734,1273.401001 1360.437744,1273.638672 
	C1351.615845,1273.859863 1342.784424,1273.706055 1333.957275,1273.716431 
	C1332.150635,1273.718506 1330.343994,1273.716797 1328.185913,1273.716797 
	C1328.185913,1279.001465 1328.185913,1283.897217 1328.185913,1289.338989 
	C1329.969971,1289.435181 1331.718994,1289.608154 1333.468262,1289.611328 
	C1347.958252,1289.637451 1362.448853,1289.564453 1376.938110,1289.674927 
	C1381.727783,1289.711426 1387.275513,1289.266113 1389.440186,1294.812134 
	C1391.989868,1301.344604 1392.468506,1308.389648 1388.275635,1314.420898 
	C1386.879272,1316.429565 1383.147095,1317.752563 1380.465088,1317.782104 
	C1357.151489,1318.039185 1333.832642,1318.067871 1310.518311,1317.850342 
	C1303.132812,1317.781372 1300.044556,1314.511475 1299.438965,1307.067993 
	C1299.061890,1302.432983 1299.249268,1297.748901 1299.246826,1293.086914 
	C1299.233643,1268.603760 1299.240479,1244.120605 1299.241211,1219.637451 
	C1299.241211,1217.971924 1299.215698,1216.305664 1299.257324,1214.641113 
	C1299.515503,1204.308350 1302.375854,1201.388794 1313.166016,1200.894531 
z"/>
<path fill="#FD4C67" opacity="1.000000" stroke="none" 
	d="
M1401.239746,1273.000000 
	C1401.241211,1253.350464 1401.218262,1234.200928 1401.253662,1215.051392 
	C1401.274048,1204.007446 1404.175415,1201.003906 1415.065796,1200.916626 
	C1426.721313,1200.823364 1438.388062,1200.581665 1450.031982,1200.960449 
	C1467.435547,1201.526489 1480.999146,1209.280029 1488.227173,1225.293701 
	C1495.316040,1240.999023 1493.797729,1256.493774 1482.740845,1270.294678 
	C1480.870972,1272.628662 1480.644043,1274.323853 1481.826050,1276.935425 
	C1485.389526,1284.808472 1488.853882,1292.734863 1492.054565,1300.761230 
	C1494.872925,1307.828979 1493.436401,1311.500122 1486.756592,1315.156616 
	C1484.443970,1316.422607 1481.930298,1317.402954 1479.406616,1318.185059 
	C1473.135010,1320.128662 1469.068359,1318.416138 1466.373413,1312.480591 
	C1462.869263,1304.762451 1459.535400,1296.962646 1456.334229,1289.114014 
	C1455.314209,1286.613037 1454.130859,1285.558960 1451.230713,1285.677490 
	C1444.293457,1285.960815 1437.336914,1285.768799 1429.814209,1285.768799 
	C1429.814209,1292.454468 1429.877930,1298.566040 1429.793701,1304.675537 
	C1429.728516,1309.407837 1429.645386,1314.578735 1424.267944,1316.437134 
	C1417.509888,1318.772583 1410.160645,1319.653931 1404.431396,1314.523560 
	C1402.179199,1312.506592 1401.521851,1307.926636 1401.392700,1304.467041 
	C1401.008057,1294.157104 1401.245361,1283.824097 1401.239746,1273.000000 
M1429.821777,1238.535278 
	C1429.821777,1244.634888 1429.821777,1250.734497 1429.821777,1257.241333 
	C1436.947632,1257.241333 1443.408081,1257.360718 1449.862305,1257.211182 
	C1457.979492,1257.023193 1463.476318,1252.019409 1463.981323,1244.638306 
	C1464.525269,1236.688477 1460.061157,1230.329834 1452.040283,1229.470215 
	C1444.857666,1228.700684 1437.527344,1229.308472 1429.821655,1229.308472 
	C1429.821655,1232.291016 1429.821655,1234.919189 1429.821777,1238.535278 
z"/>
<path fill="#FD4B66" opacity="1.000000" stroke="none" 
	d="
M624.935547,1233.000000 
	C624.945618,1225.667603 624.873047,1218.833740 624.988525,1212.003052 
	C625.110291,1204.801025 628.126343,1201.228638 635.156921,1201.097778 
	C649.481445,1200.830933 663.916138,1199.977051 678.117615,1201.332397 
	C694.041626,1202.852417 706.372009,1211.505737 712.470947,1226.759277 
	C718.505981,1241.852905 717.020630,1256.562988 706.708313,1269.600464 
	C704.522095,1272.364380 704.059875,1274.306030 705.515503,1277.441406 
	C709.086914,1285.134155 712.466370,1292.926758 715.609314,1300.804321 
	C718.381042,1307.751831 716.828369,1311.630859 710.183594,1315.179077 
	C707.707397,1316.501221 705.050781,1317.588989 702.357971,1318.380859 
	C696.644592,1320.061279 692.552856,1318.284668 690.072510,1312.835449 
	C686.489624,1304.963867 683.110229,1296.995239 679.842712,1288.986938 
	C678.805359,1286.444580 677.508240,1285.554810 674.662354,1285.671509 
	C667.704468,1285.956665 660.727051,1285.764526 653.102051,1285.764526 
	C653.102051,1292.687988 653.161377,1299.132446 653.087646,1305.575439 
	C652.986328,1314.431885 649.979675,1317.470093 641.032593,1317.874512 
	C639.370972,1317.949585 637.691711,1317.961060 636.037354,1317.813721 
	C627.995361,1317.096436 625.047241,1314.106079 625.011169,1305.990723 
	C624.903870,1281.827515 624.949646,1257.663574 624.935547,1233.000000 
M687.044800,1247.319824 
	C688.624756,1237.112671 684.359802,1230.272217 674.890198,1229.334839 
	C667.872986,1228.640015 660.731750,1229.197998 653.381104,1229.197998 
	C653.381104,1238.618774 653.381104,1247.647827 653.381104,1257.248047 
	C660.226440,1257.248047 666.816162,1257.365967 673.399719,1257.214355 
	C679.774048,1257.067749 684.461243,1254.168701 687.044800,1247.319824 
z"/>
<path fill="#FD4B66" opacity="1.000000" stroke="none" 
	d="
M1088.707520,1312.161255 
	C1084.999878,1308.190063 1086.002930,1304.296509 1087.916504,1300.330566 
	C1093.626831,1288.495239 1099.302002,1276.643188 1105.012329,1264.807861 
	C1113.758545,1246.680542 1122.550659,1228.575195 1131.262695,1210.431396 
	C1134.100098,1204.522095 1138.379395,1200.946899 1145.197632,1200.903931 
	C1151.996216,1200.861084 1155.768677,1204.857544 1158.485718,1210.488281 
	C1172.727173,1240.001587 1187.008423,1269.495605 1201.265991,1299.001221 
	C1203.334961,1303.282959 1205.537476,1307.799561 1201.316772,1311.877930 
	C1196.443359,1316.586914 1190.741943,1320.461426 1183.608276,1319.124023 
	C1181.154053,1318.663818 1178.526489,1315.949951 1177.144531,1313.584351 
	C1173.881226,1307.998535 1171.492920,1301.906738 1168.354004,1296.239258 
	C1167.533813,1294.758545 1165.277710,1293.208862 1163.651001,1293.176025 
	C1151.162476,1292.923340 1138.664185,1292.922852 1126.175659,1293.175537 
	C1124.528931,1293.208740 1122.244751,1294.738281 1121.415039,1296.222656 
	C1118.417114,1301.586060 1116.057251,1307.301514 1113.188232,1312.742554 
	C1109.590088,1319.566040 1105.415649,1321.079712 1098.360840,1317.966431 
	C1095.059326,1316.509644 1092.092041,1314.295410 1088.707520,1312.161255 
M1138.033569,1261.518799 
	C1136.959106,1263.873779 1135.884521,1266.228638 1134.605225,1269.032471 
	C1141.754639,1269.032471 1148.167603,1269.032471 1155.328613,1269.032471 
	C1151.833130,1261.883667 1148.567627,1255.205078 1144.853760,1247.609619 
	C1142.291138,1252.815674 1140.319702,1256.820801 1138.033569,1261.518799 
z"/>
<path fill="#FD4B66" opacity="1.000000" stroke="none" 
	d="
M766.936096,1235.000000 
	C766.954102,1227.170044 766.840576,1219.836792 767.025818,1212.510986 
	C767.227051,1204.549683 770.429626,1201.089355 778.337341,1201.029663 
	C801.658508,1200.853516 824.982361,1200.881714 848.304138,1201.008789 
	C854.447754,1201.042236 857.587830,1204.115601 857.987915,1210.183716 
	C859.044434,1226.208374 857.090332,1229.525269 840.932800,1229.140015 
	C825.954102,1228.783081 810.960083,1229.063843 795.545044,1229.063843 
	C795.545044,1234.305908 795.545044,1239.347656 795.545044,1245.132935 
	C801.071350,1245.132935 806.661194,1245.127075 812.251038,1245.134521 
	C818.081726,1245.142212 823.917725,1245.011353 829.741638,1245.216797 
	C836.599915,1245.458984 839.296326,1247.914185 840.423828,1254.672729 
	C840.777039,1256.790039 840.880249,1258.986328 840.791992,1261.133911 
	C840.409546,1270.435547 837.128662,1273.706665 827.865601,1273.802979 
	C817.214294,1273.913696 806.560974,1273.828735 795.116211,1273.828735 
	C795.116211,1279.519653 795.122742,1284.942871 795.114502,1290.366089 
	C795.105896,1296.030151 795.184814,1301.696777 795.039673,1307.357544 
	C794.869751,1313.980469 792.036926,1317.034180 785.404846,1317.802734 
	C783.101074,1318.069702 780.740051,1318.057373 778.419250,1317.924927 
	C770.223450,1317.456665 767.039673,1314.252075 767.004150,1305.969238 
	C766.903320,1282.479858 766.948425,1258.989746 766.936096,1235.000000 
z"/>
<path fill="#FD4C67" opacity="1.000000" stroke="none" 
	d="
M1228.000000,1200.560547 
	C1243.831909,1200.560791 1259.163818,1200.560303 1274.495728,1200.560547 
	C1275.828979,1200.560547 1277.162720,1200.541870 1278.495239,1200.572632 
	C1289.338257,1200.822754 1295.065674,1210.481934 1289.280640,1219.748413 
	C1287.826538,1222.077515 1283.474731,1223.507446 1280.349243,1223.707886 
	C1271.884277,1224.250854 1263.362793,1223.911865 1254.863647,1223.921631 
	C1253.056030,1223.923706 1251.248291,1223.921997 1248.667480,1223.921997 
	C1248.667480,1226.191895 1248.667603,1228.107300 1248.667480,1230.022705 
	C1248.665894,1254.520386 1248.691406,1279.018188 1248.651367,1303.515869 
	C1248.630249,1316.457031 1237.073853,1322.925049 1225.459106,1316.503296 
	C1221.586914,1314.362427 1220.937744,1310.593384 1220.936035,1306.605469 
	C1220.927490,1287.107300 1220.919922,1267.609253 1220.913696,1248.111084 
	C1220.911255,1240.300293 1220.913208,1232.489624 1220.913208,1223.921997 
	C1216.864868,1223.921997 1213.108887,1223.924805 1209.352783,1223.921509 
	C1202.520142,1223.915283 1195.685059,1224.016602 1188.855469,1223.866821 
	C1181.566772,1223.706909 1179.322754,1221.518921 1178.712280,1214.409058 
	C1178.598755,1213.086060 1178.559326,1211.742310 1178.648071,1210.418945 
	C1179.132568,1203.201660 1180.814453,1201.070190 1188.015381,1200.860474 
	C1201.168701,1200.477295 1214.337646,1200.630615 1228.000000,1200.560547 
z"/>
<path fill="#FD4C67" opacity="1.000000" stroke="none" 
	d="
M934.877869,1261.000000 
	C934.876221,1275.831665 934.889099,1290.163452 934.864929,1304.495117 
	C934.856934,1309.228394 934.951782,1314.559326 929.784424,1316.539551 
	C923.471130,1318.959229 916.309265,1319.747314 910.674255,1315.447510 
	C908.257385,1313.603394 907.244629,1308.693115 907.203979,1305.157471 
	C906.916870,1280.163574 907.048157,1255.164795 907.046021,1230.167603 
	C907.045837,1228.347290 907.045959,1226.526978 907.045959,1224.250854 
	C905.419067,1224.130981 903.995728,1223.940308 902.571716,1223.935059 
	C893.572876,1223.902100 884.572510,1224.003784 875.575256,1223.877075 
	C867.543091,1223.764038 865.104431,1221.253906 864.962524,1213.380859 
	C864.932556,1211.716309 864.931458,1210.041504 865.078125,1208.385742 
	C865.470215,1203.961426 867.796631,1201.325684 872.346863,1200.997803 
	C875.335876,1200.782349 878.334534,1200.584106 881.329102,1200.580566 
	C907.992798,1200.548950 934.656433,1200.558105 961.320129,1200.570557 
	C963.317505,1200.571533 965.321350,1200.609253 967.311096,1200.768555 
	C974.757385,1201.364380 976.799927,1203.587891 976.977356,1211.165405 
	C977.218567,1221.462524 974.920959,1223.852783 964.534851,1223.905640 
	C954.891602,1223.954712 945.247925,1223.916260 934.877930,1223.916260 
	C934.877930,1236.319946 934.877930,1248.410034 934.877869,1261.000000 
z"/>
<path fill="#FD4B66" opacity="1.000000" stroke="none" 
	d="
M754.115601,1271.000000 
	C754.106750,1283.147339 754.165405,1294.795410 754.065247,1306.441895 
	C753.998352,1314.213013 750.990723,1317.354492 743.335938,1317.898071 
	C741.184692,1318.050903 739.001404,1318.069092 736.853455,1317.894287 
	C729.221741,1317.273193 726.042786,1314.091309 726.020630,1306.421997 
	C725.929382,1274.807983 725.930969,1243.193481 726.015381,1211.579468 
	C726.033508,1204.770386 729.243103,1201.619385 736.057617,1201.036499 
	C737.711731,1200.895020 739.383301,1200.897217 741.045532,1200.922119 
	C751.167786,1201.073486 754.043823,1203.904297 754.080261,1214.093262 
	C754.147522,1232.895264 754.109680,1251.697754 754.115601,1271.000000 
z"/>
<path fill="#FD4E69" opacity="1.000000" stroke="none" 
	d="
M1052.658691,1390.045288 
	C1052.655151,1392.680176 1052.623047,1394.844849 1052.655151,1397.008545 
	C1052.707764,1400.561157 1051.035278,1402.145752 1047.443848,1402.033081 
	C1043.875732,1401.920898 1043.003540,1399.920410 1043.027100,1396.792480 
	C1043.097290,1387.470215 1042.926270,1378.143799 1043.155518,1368.826538 
	C1043.201172,1366.969482 1044.574097,1363.607666 1045.384277,1363.592773 
	C1047.900269,1363.546143 1051.326904,1363.989136 1052.805420,1365.656616 
	C1057.425293,1370.866333 1061.307739,1376.729248 1065.491577,1382.327393 
	C1065.877563,1382.843750 1066.374268,1383.277222 1067.902344,1384.896973 
	C1067.902344,1378.390869 1067.999634,1373.083008 1067.869629,1367.780762 
	C1067.776245,1363.973267 1069.796387,1362.364014 1073.109985,1363.181885 
	C1074.684204,1363.570435 1076.947754,1365.651001 1076.994263,1367.029175 
	C1077.341675,1377.338257 1077.302246,1387.664795 1077.118896,1397.981201 
	C1077.095947,1399.267822 1075.466187,1401.630493 1074.673218,1401.592285 
	C1072.257568,1401.475220 1069.110718,1401.156128 1067.649780,1399.600098 
	C1063.799683,1395.499756 1060.695068,1390.700562 1057.281372,1386.188843 
	C1056.193237,1384.750488 1055.066284,1383.341431 1052.658813,1382.076050 
	C1052.658813,1384.575562 1052.658813,1387.075073 1052.658691,1390.045288 
z"/>
<path fill="#FD4E69" opacity="1.000000" stroke="none" 
	d="
M877.214783,1379.012695 
	C877.225037,1374.856812 877.181458,1371.196655 877.262329,1367.539185 
	C877.327942,1364.574951 878.764954,1362.947510 881.916504,1362.968506 
	C889.068115,1363.016357 896.220825,1363.029053 903.372009,1362.951416 
	C906.535767,1362.917114 907.908508,1364.382935 907.964355,1367.462158 
	C908.018066,1370.425781 906.900757,1372.368652 903.744080,1372.420166 
	C898.432678,1372.506714 893.118835,1372.443848 887.346741,1372.443848 
	C887.203796,1374.138428 887.088257,1375.508423 886.971008,1376.899048 
	C887.715698,1377.233643 888.138123,1377.577759 888.571716,1377.592407 
	C890.897827,1377.671021 893.226746,1377.682739 895.554749,1377.689209 
	C898.819519,1377.698120 902.007263,1377.504272 902.063843,1382.328491 
	C902.119263,1387.044434 899.223389,1387.243408 895.782043,1387.140503 
	C892.995972,1387.057251 890.205322,1387.123657 887.195496,1387.123657 
	C887.195496,1389.045776 887.195496,1390.445923 887.195496,1392.439453 
	C892.375061,1392.439453 897.315125,1392.499390 902.252930,1392.419189 
	C905.760681,1392.362061 908.063843,1393.343628 907.974426,1397.445068 
	C907.890625,1401.291748 905.719543,1402.104980 902.407166,1402.043823 
	C896.088928,1401.927246 889.760986,1401.842529 883.448608,1402.067627 
	C878.973816,1402.227051 877.017151,1400.521606 877.172424,1395.974365 
	C877.359619,1390.491943 877.215454,1384.998291 877.214783,1379.012695 
z"/>
<path fill="#FD4E69" opacity="1.000000" stroke="none" 
	d="
M1082.062744,1374.264404 
	C1088.454956,1362.958862 1099.597534,1359.126465 1109.601318,1364.608154 
	C1111.941406,1365.890625 1115.298096,1366.966064 1113.235474,1370.876587 
	C1111.367920,1374.416870 1109.015991,1375.404053 1105.160156,1373.097168 
	C1101.038940,1370.631592 1096.741821,1371.390381 1093.227173,1374.728394 
	C1089.848389,1377.937500 1089.182007,1381.913330 1090.962646,1386.176147 
	C1092.719727,1390.382446 1095.947510,1393.041992 1100.544189,1392.810303 
	C1102.279053,1392.722900 1104.895996,1391.083130 1105.397949,1389.579224 
	C1106.420898,1386.514038 1103.535522,1386.796631 1101.463013,1386.147949 
	C1100.064331,1385.709961 1098.250732,1383.694092 1098.272827,1382.412354 
	C1098.296265,1381.049072 1100.104858,1378.786377 1101.417725,1378.559692 
	C1104.648071,1378.001709 1108.128662,1377.948730 1111.329712,1378.588013 
	C1112.796387,1378.880981 1114.552856,1381.122681 1114.917969,1382.761230 
	C1115.519409,1385.460083 1115.108887,1388.386963 1115.103638,1391.217773 
	C1115.092407,1397.333984 1112.866333,1400.296875 1106.885254,1401.802856 
	C1099.048340,1403.776001 1091.934814,1402.457642 1086.261963,1396.382690 
	C1080.382690,1390.086792 1079.103271,1382.726685 1082.062744,1374.264404 
z"/>
<path fill="#FD4E69" opacity="1.000000" stroke="none" 
	d="
M799.056519,1393.809326 
	C794.411316,1385.856934 794.679443,1378.181152 799.400574,1370.920166 
	C803.415344,1364.745361 809.502502,1361.813965 816.892395,1362.573486 
	C826.215027,1363.531860 833.006958,1370.407104 834.304932,1379.674927 
	C835.548279,1388.552612 830.795044,1397.548096 822.996277,1401.075684 
	C814.637512,1404.856689 806.019348,1402.335938 799.056519,1393.809326 
M813.072693,1392.914795 
	C814.068726,1392.958252 815.077209,1393.124512 816.058655,1393.024658 
	C821.587891,1392.462524 825.359314,1387.654297 824.957581,1381.760376 
	C824.584045,1376.279297 820.046875,1371.886475 814.884277,1372.007568 
	C809.754150,1372.127930 805.297791,1376.730347 805.263977,1382.232178 
	C805.233337,1387.230469 807.669067,1390.751221 813.072693,1392.914795 
z"/>
<path fill="#FD4E69" opacity="1.000000" stroke="none" 
	d="
M958.700317,1378.643311 
	C959.572266,1393.432129 951.529663,1401.993652 937.133057,1401.984375 
	C923.303711,1401.975586 925.008484,1403.299438 924.924377,1389.707886 
	C924.879211,1382.401733 924.996338,1375.093872 924.888062,1367.789062 
	C924.838440,1364.441162 926.168579,1362.850220 929.575500,1362.938232 
	C933.226440,1363.032837 936.885315,1362.874146 940.533325,1363.015747 
	C949.096191,1363.348145 955.775696,1369.024170 958.700317,1378.643311 
M945.657410,1390.195312 
	C949.575134,1386.094604 950.433411,1381.243652 947.956848,1377.199219 
	C945.361450,1372.960815 940.207886,1371.403564 934.625610,1373.090576 
	C934.625610,1379.504761 934.625610,1385.870850 934.625610,1393.358521 
	C938.542236,1392.353149 941.800659,1391.516724 945.657410,1390.195312 
z"/>
<path fill="#FD4E69" opacity="1.000000" stroke="none" 
	d="
M958.315369,1397.911133 
	C963.248047,1387.218140 968.045105,1376.828247 973.187073,1366.611938 
	C973.993958,1365.008667 976.389221,1363.241943 978.007812,1363.281372 
	C979.620239,1363.320679 981.817810,1365.211670 982.656799,1366.853882 
	C987.409119,1376.155640 991.749023,1385.667236 996.408569,1395.018066 
	C998.062317,1398.336914 997.140320,1400.324951 994.047607,1401.816284 
	C990.911499,1403.328247 989.146240,1402.067871 987.775330,1399.164551 
	C986.897583,1397.305542 985.670105,1394.406738 984.287476,1394.214233 
	C979.907532,1393.604370 975.363403,1393.851440 970.926147,1394.250122 
	C970.043030,1394.329468 969.251221,1396.495239 968.589417,1397.787109 
	C965.471619,1403.873657 962.283020,1404.038696 958.315369,1397.911133 
M978.307068,1380.052734 
	C977.033691,1381.655884 975.760315,1383.259033 973.962646,1385.522339 
	C977.066589,1385.522339 978.887756,1385.522339 981.136719,1385.522339 
	C980.219116,1383.568604 979.524902,1382.090332 978.307068,1380.052734 
z"/>
<path fill="#FD4E69" opacity="1.000000" stroke="none" 
	d="
M1166.317383,1402.142578 
	C1164.291748,1401.087646 1161.717041,1400.279175 1161.098877,1398.703125 
	C1159.480591,1394.576538 1156.938477,1393.127319 1152.746216,1393.802002 
	C1151.450806,1394.010376 1150.071289,1393.990723 1148.768921,1393.804688 
	C1145.147339,1393.287476 1142.835205,1394.469604 1141.623901,1398.139893 
	C1140.530884,1401.452393 1138.608765,1403.703857 1134.539917,1401.593384 
	C1130.794067,1399.650146 1131.516724,1397.136475 1133.001831,1394.133423 
	C1137.340210,1385.360840 1141.412964,1376.453613 1145.919678,1367.770386 
	C1146.928101,1365.827515 1149.238647,1363.420532 1151.030640,1363.352295 
	C1152.742065,1363.287109 1155.229370,1365.642822 1156.215088,1367.537964 
	C1160.806030,1376.363647 1164.856201,1385.469238 1169.390869,1394.325806 
	C1171.380493,1398.211670 1170.698853,1400.572754 1166.317383,1402.142578 
M1153.938110,1384.770386 
	C1153.109131,1382.960327 1152.280151,1381.150391 1151.025391,1378.410889 
	C1149.635132,1381.529419 1148.785156,1383.435913 1147.657715,1385.964844 
	C1150.185547,1385.779297 1151.963379,1385.648926 1153.938110,1384.770386 
z"/>
<path fill="#FD506A" opacity="1.000000" stroke="none" 
	d="
M1228.128418,1390.399902 
	C1224.319702,1390.944092 1220.873657,1391.329712 1216.914795,1391.772583 
	C1216.914795,1393.604492 1216.875000,1395.407959 1216.923462,1397.208984 
	C1217.005127,1400.236938 1215.733154,1401.893555 1212.547852,1401.990356 
	C1209.378174,1402.086426 1207.280884,1400.968994 1207.261230,1397.536743 
	C1207.204224,1387.540161 1207.219604,1377.543091 1207.234863,1367.546143 
	C1207.239502,1364.535156 1208.648804,1362.905640 1211.826294,1362.967041 
	C1215.157227,1363.031372 1218.490845,1362.946289 1221.822998,1362.967651 
	C1230.074951,1363.020630 1235.473755,1366.821655 1237.181152,1373.748169 
	C1238.936523,1380.869629 1236.065674,1386.318115 1228.128418,1390.399902 
M1221.299683,1381.894897 
	C1225.119629,1381.907104 1228.472534,1381.188721 1227.977295,1376.274170 
	C1227.609863,1372.628540 1223.850830,1371.522949 1216.903320,1373.008423 
	C1216.903320,1374.848389 1217.044800,1376.805054 1216.869751,1378.733032 
	C1216.615479,1381.532104 1218.064087,1382.159790 1221.299683,1381.894897 
z"/>
<path fill="#FD4C67" opacity="1.000000" stroke="none" 
	d="
M1186.862305,1362.970825 
	C1198.231567,1363.111816 1205.065918,1369.747192 1203.808472,1378.967896 
	C1202.920166,1385.481201 1197.693970,1390.515137 1191.086548,1391.032715 
	C1188.640503,1391.224243 1186.166870,1391.063599 1183.290527,1391.063599 
	C1183.189087,1393.376221 1182.986450,1395.151367 1183.060791,1396.914795 
	C1183.197266,1400.146973 1182.041626,1401.946411 1178.531372,1401.997437 
	C1175.170288,1402.046265 1173.566895,1400.518555 1173.559937,1397.241577 
	C1173.539429,1387.420044 1173.544922,1377.598511 1173.540649,1367.776978 
	C1173.539185,1364.535156 1174.975098,1362.822021 1178.402954,1362.961060 
	C1181.062012,1363.069092 1183.729248,1362.974854 1186.862305,1362.970825 
M1185.599609,1381.900146 
	C1186.928833,1381.891968 1188.589966,1382.384277 1189.517334,1381.769775 
	C1191.356567,1380.550781 1192.791016,1378.721069 1194.392822,1377.143921 
	C1192.811157,1375.538452 1191.487061,1373.368408 1189.571533,1372.494507 
	C1187.838013,1371.703735 1185.459106,1372.327393 1182.125488,1372.327393 
	C1183.147339,1376.088989 1183.932251,1378.978638 1185.599609,1381.900146 
z"/>
<path fill="#FD4E69" opacity="1.000000" stroke="none" 
	d="
M839.494873,1378.573853 
	C837.914612,1375.411987 836.592773,1372.536011 835.115601,1369.742188 
	C833.430359,1366.554810 834.895874,1364.747681 837.648743,1363.390015 
	C840.449707,1362.008789 842.408142,1362.792847 843.697510,1365.617065 
	C847.075073,1373.015503 850.495605,1380.394287 854.357300,1388.775513 
	C857.946289,1380.928955 861.192200,1373.975830 864.303467,1366.963135 
	C865.644104,1363.941528 867.046631,1361.581055 870.980286,1363.341797 
	C874.994080,1365.138428 874.640198,1367.729370 872.953125,1371.048950 
	C868.579956,1379.653809 864.548584,1388.436401 860.009521,1396.950195 
	C858.908875,1399.014648 856.237793,1401.761230 854.533081,1401.600464 
	C852.393188,1401.399048 849.866577,1398.893188 848.631104,1396.737549 
	C845.328003,1390.974365 842.625671,1384.866699 839.494873,1378.573853 
z"/>
<path fill="#FD4E69" opacity="1.000000" stroke="none" 
	d="
M1003.047852,1397.561768 
	C1003.042725,1388.512573 1003.042725,1379.918335 1003.042725,1370.770020 
	C999.440063,1370.770020 996.332031,1370.771362 993.224060,1370.769653 
	C990.405945,1370.768188 988.911499,1369.553589 989.006897,1366.536987 
	C989.098022,1363.657227 990.709473,1362.919800 993.238098,1362.930542 
	C1002.871277,1362.971191 1012.509460,1362.796265 1022.132996,1363.102173 
	C1023.600769,1363.148926 1025.833252,1365.068848 1026.254395,1366.539795 
	C1027.051758,1369.323975 1025.080566,1370.750000 1022.255005,1370.761475 
	C1019.152039,1370.774170 1016.048889,1370.764282 1012.418701,1370.764282 
	C1012.418701,1379.878784 1012.433960,1388.310059 1012.409668,1396.741333 
	C1012.402039,1399.376709 1012.083191,1401.834106 1008.581909,1401.989746 
	C1005.665771,1402.119385 1003.147278,1401.776978 1003.047852,1397.561768 
z"/>
<path fill="#FD516B" opacity="1.000000" stroke="none" 
	d="
M765.202881,1373.113159 
	C765.211853,1370.799072 765.161499,1368.964844 765.242737,1367.136597 
	C765.383240,1363.976929 767.218506,1362.894775 770.220398,1362.950806 
	C773.259216,1363.007568 774.926697,1364.194580 774.918457,1367.387817 
	C774.896118,1376.028198 774.910767,1384.668457 774.910767,1394.034790 
	C779.628784,1394.034790 784.052917,1394.096558 788.474304,1394.013184 
	C791.457825,1393.957031 793.224243,1394.851196 793.143433,1398.258423 
	C793.066101,1401.518677 791.155762,1402.045776 788.525269,1402.028198 
	C782.531128,1401.988159 776.534851,1401.926880 770.542847,1402.047241 
	C766.659546,1402.125244 765.157593,1400.274780 765.188538,1396.573975 
	C765.252502,1388.915039 765.204590,1381.255127 765.202881,1373.113159 
z"/>
<path fill="#FD516B" opacity="1.000000" stroke="none" 
	d="
M1032.425415,1401.883301 
	C1031.079956,1400.218384 1029.379883,1398.644409 1029.337402,1397.026978 
	C1029.082886,1387.371704 1029.234985,1377.706055 1029.197388,1368.044189 
	C1029.183716,1364.546631 1030.639038,1362.846558 1034.315308,1362.940552 
	C1037.792236,1363.029419 1038.967773,1364.747314 1038.945312,1367.985352 
	C1038.880615,1377.313843 1038.776978,1386.646362 1038.987793,1395.970459 
	C1039.090454,1400.513672 1037.440552,1402.580200 1032.425415,1401.883301 
z"/>
<path fill="#FFF7F8" opacity="1.000000" stroke="none" 
	d="
M1011.619385,1033.278931 
	C1007.001892,1031.046509 1002.728699,1028.970825 998.240662,1026.790771 
	C1006.369385,1020.941895 1015.403564,1025.163330 1017.889832,1036.022095 
	C1015.701294,1035.067017 1013.832458,1034.251343 1011.619385,1033.278931 
z"/>
<path fill="#FFF7F8" opacity="1.000000" stroke="none" 
	d="
M977.850891,1017.055054 
	C977.093872,1012.685303 979.669495,1010.497620 983.208496,1010.146423 
	C986.950012,1009.775146 989.532593,1011.647400 989.096191,1016.079102 
	C988.922424,1017.843933 989.067566,1019.640137 989.067566,1022.275452 
	C984.942871,1020.358948 981.566833,1018.790283 977.850891,1017.055054 
z"/>
<path fill="#FFFFFF" opacity="1.000000" stroke="none" 
	d="
M985.980835,733.114380 
	C985.977295,730.864136 985.977295,729.088806 985.977295,727.313538 
	C986.284180,727.316895 986.591003,727.320251 986.897888,727.323608 
	C986.897888,732.643799 986.897888,737.964050 986.897888,743.284241 
	C986.593384,743.297546 986.288879,743.310852 985.984375,743.324097 
	C985.984375,740.079224 985.984375,736.834290 985.980835,733.114380 
z"/>
<path fill="#FFFFFF" opacity="1.000000" stroke="none" 
	d="
M1203.729736,646.721924 
	C1204.192017,646.102417 1204.654297,645.482971 1205.392578,644.746948 
	C1205.834351,644.814758 1206.000122,644.999023 1206.386475,645.485962 
	C1206.085571,646.328430 1205.563965,646.868103 1204.603516,647.301636 
	C1204.019653,647.037598 1203.874634,646.879761 1203.729736,646.721924 
z"/>
<path fill="#FFFFFF" opacity="1.000000" stroke="none" 
	d="
M1188.411987,630.429321 
	C1188.286743,631.090881 1187.939697,631.507324 1187.223389,631.882446 
	C1186.854126,631.841064 1186.648682,631.613098 1186.648682,631.613098 
	C1186.846924,631.091858 1187.045288,630.570557 1187.476807,629.889648 
	C1187.870239,629.881409 1188.030273,630.032837 1188.411987,630.429321 
z"/>
<path fill="#FFFFFF" opacity="1.000000" stroke="none" 
	d="
M1215.558105,869.388916 
	C1214.899902,869.172852 1214.528564,868.706726 1214.157349,868.240601 
	C1214.732300,868.213989 1215.307129,868.187317 1216.126709,868.374573 
	C1216.195923,868.771973 1216.020630,868.955444 1215.558105,869.388916 
z"/>
<path fill="#FFFFFF" opacity="1.000000" stroke="none" 
	d="
M979.406372,734.408081 
	C979.634705,734.602783 979.676025,735.011902 979.717346,735.421082 
	C979.551392,735.154907 979.385437,734.888672 979.406372,734.408081 
z"/>
<path fill="#FFFFFF" opacity="1.000000" stroke="none" 
	d="
M1252.001465,670.996582 
	C1251.557495,671.369202 1250.941040,671.540955 1250.324585,671.712646 
	C1250.540527,671.385559 1250.756470,671.058472 1251.218506,670.571045 
	C1251.586060,670.539062 1251.707397,670.667358 1252.001465,670.996582 
z"/>
<path fill="#FFFFFF" opacity="1.000000" stroke="none" 
	d="
M1230.714722,655.720215 
	C1231.072510,655.333923 1231.430420,654.947571 1232.019775,654.439697 
	C1232.425293,654.467773 1232.599365,654.617432 1233.010742,655.016968 
	C1232.836426,655.643250 1232.424927,656.019531 1231.567993,656.273071 
	C1230.986694,656.006897 1230.850708,655.863586 1230.714722,655.720215 
z"/>
<path fill="#FFFFFF" opacity="1.000000" stroke="none" 
	d="
M1186.957764,631.954285 
	C1186.796387,632.269165 1186.531494,632.470764 1186.266724,632.672485 
	C1186.250854,632.426514 1186.234863,632.180481 1186.433838,631.773804 
	C1186.648682,631.613098 1186.854126,631.841064 1186.957764,631.954285 
z"/>
<path fill="#FFFFFF" opacity="1.000000" stroke="none" 
	d="
M1202.729492,647.721558 
	C1202.804199,647.380859 1202.985718,647.112183 1203.501709,646.818726 
	C1203.874634,646.879761 1204.019653,647.037598 1204.359863,647.454529 
	C1204.383545,647.984497 1204.184326,648.233276 1203.559326,648.327698 
	C1203.017456,648.037537 1202.873535,647.879578 1202.729492,647.721558 
z"/>
<path fill="#FFFFFF" opacity="1.000000" stroke="none" 
	d="
M1203.352783,648.452576 
	C1203.368286,648.963440 1203.162476,649.190369 1202.530762,649.269836 
	C1201.994019,649.003174 1201.853394,648.857056 1201.712891,648.710938 
	C1201.790649,648.369141 1201.976562,648.102722 1202.500000,647.816589 
	C1202.873535,647.879578 1203.017456,648.037537 1203.352783,648.452576 
z"/>
<path fill="#FFFFFF" opacity="1.000000" stroke="none" 
	d="
M1202.328613,649.383362 
	C1202.315796,649.880920 1202.061279,650.084839 1201.433838,650.164551 
	C1201.108521,650.099915 1200.955566,649.960938 1200.955566,649.960938 
	C1201.058594,649.635620 1201.161621,649.310303 1201.488770,648.847961 
	C1201.853394,648.857056 1201.994019,649.003174 1202.328613,649.383362 
z"/>
<path fill="#FFFFFF" opacity="1.000000" stroke="none" 
	d="
M1231.305664,656.383301 
	C1231.046997,656.436401 1230.605225,656.256531 1230.439209,655.898438 
	C1230.850708,655.863586 1230.986694,656.006897 1231.305664,656.383301 
z"/>
<path fill="#FFFFFF" opacity="1.000000" stroke="none" 
	d="
M1201.186035,650.168152 
	C1201.045166,650.448425 1200.826782,650.660522 1200.608276,650.872559 
	C1200.564819,650.616943 1200.521362,650.361267 1200.716797,650.033325 
	C1200.955566,649.960938 1201.108521,650.099915 1201.186035,650.168152 
z"/>
<path fill="#FFFEFE" opacity="1.000000" stroke="none" 
	d="
M540.821655,1236.076172 
	C540.821594,1233.621216 540.821594,1231.656616 540.821594,1229.274048 
	C552.776184,1229.062744 564.412048,1227.464600 574.513123,1235.508301 
	C584.662598,1243.590332 588.797791,1256.650146 584.782410,1269.061157 
	C581.209534,1280.104736 569.734985,1288.771362 557.673889,1289.292236 
	C552.371033,1289.521362 547.050049,1289.330933 540.821777,1289.330933 
	C540.821777,1271.623291 540.821777,1254.094727 540.821655,1236.076172 
z"/>
<path fill="#FFFEFE" opacity="1.000000" stroke="none" 
	d="
M1013.973145,1240.023560 
	C1013.973145,1236.235107 1013.973145,1232.942871 1013.973145,1229.355225 
	C1027.730713,1228.644165 1041.043335,1227.578003 1051.387939,1238.807129 
	C1059.809326,1247.948730 1061.516479,1258.712280 1057.561035,1269.898071 
	C1053.675903,1280.885132 1045.112549,1287.524414 1033.456787,1288.999756 
	C1027.277222,1289.781982 1020.917297,1289.138306 1013.973145,1289.138306 
	C1013.973145,1272.983154 1013.973145,1256.751465 1013.973145,1240.023560 
z"/>
<path fill="#FFFEFE" opacity="1.000000" stroke="none" 
	d="
M1429.821777,1238.041260 
	C1429.821655,1234.919189 1429.821655,1232.291016 1429.821655,1229.308472 
	C1437.527344,1229.308472 1444.857666,1228.700684 1452.040283,1229.470215 
	C1460.061157,1230.329834 1464.525269,1236.688477 1463.981323,1244.638306 
	C1463.476318,1252.019409 1457.979492,1257.023193 1449.862305,1257.211182 
	C1443.408081,1257.360718 1436.947632,1257.241333 1429.821777,1257.241333 
	C1429.821777,1250.734497 1429.821777,1244.634888 1429.821777,1238.041260 
z"/>
<path fill="#FFFCFD" opacity="1.000000" stroke="none" 
	d="
M686.973389,1247.699585 
	C684.461243,1254.168701 679.774048,1257.067749 673.399719,1257.214355 
	C666.816162,1257.365967 660.226440,1257.248047 653.381104,1257.248047 
	C653.381104,1247.647827 653.381104,1238.618774 653.381104,1229.197998 
	C660.731750,1229.197998 667.872986,1228.640015 674.890198,1229.334839 
	C684.359802,1230.272217 688.624756,1237.112671 686.973389,1247.699585 
z"/>
<path fill="#FFFCFD" opacity="1.000000" stroke="none" 
	d="
M1138.190918,1261.172363 
	C1140.319702,1256.820801 1142.291138,1252.815674 1144.853760,1247.609619 
	C1148.567627,1255.205078 1151.833130,1261.883667 1155.328613,1269.032471 
	C1148.167603,1269.032471 1141.754639,1269.032471 1134.605225,1269.032471 
	C1135.884521,1266.228638 1136.959106,1263.873779 1138.190918,1261.172363 
z"/>
<path fill="#FFFCFD" opacity="1.000000" stroke="none" 
	d="
M812.687988,1392.809814 
	C807.669067,1390.751221 805.233337,1387.230469 805.263977,1382.232178 
	C805.297791,1376.730347 809.754150,1372.127930 814.884277,1372.007568 
	C820.046875,1371.886475 824.584045,1376.279297 824.957581,1381.760376 
	C825.359314,1387.654297 821.587891,1392.462524 816.058655,1393.024658 
	C815.077209,1393.124512 814.068726,1392.958252 812.687988,1392.809814 
z"/>
<path fill="#FFF7F8" opacity="1.000000" stroke="none" 
	d="
M945.358276,1390.437744 
	C941.800659,1391.516724 938.542236,1392.353149 934.625610,1393.358521 
	C934.625610,1385.870850 934.625610,1379.504761 934.625610,1373.090576 
	C940.207886,1371.403564 945.361450,1372.960815 947.956848,1377.199219 
	C950.433411,1381.243652 949.575134,1386.094604 945.358276,1390.437744 
z"/>
<path fill="#FFF7F8" opacity="1.000000" stroke="none" 
	d="
M978.568848,1380.332520 
	C979.524902,1382.090332 980.219116,1383.568604 981.136719,1385.522339 
	C978.887756,1385.522339 977.066589,1385.522339 973.962646,1385.522339 
	C975.760315,1383.259033 977.033691,1381.655884 978.568848,1380.332520 
z"/>
<path fill="#FFF7F8" opacity="1.000000" stroke="none" 
	d="
M1153.839600,1385.144409 
	C1151.963379,1385.648926 1150.185547,1385.779297 1147.657715,1385.964844 
	C1148.785156,1383.435913 1149.635132,1381.529419 1151.025391,1378.410889 
	C1152.280151,1381.150391 1153.109131,1382.960327 1153.839600,1385.144409 
z"/>
<path fill="#FFF7F8" opacity="1.000000" stroke="none" 
	d="
M1220.859863,1381.894775 
	C1218.064087,1382.159790 1216.615479,1381.532104 1216.869751,1378.733032 
	C1217.044800,1376.805054 1216.903320,1374.848389 1216.903320,1373.008423 
	C1223.850830,1371.522949 1227.609863,1372.628540 1227.977295,1376.274170 
	C1228.472534,1381.188721 1225.119629,1381.907104 1220.859863,1381.894775 
z"/>
<path fill="#FFF7F8" opacity="1.000000" stroke="none" 
	d="
M1185.158447,1381.884155 
	C1183.932251,1378.978638 1183.147339,1376.088989 1182.125488,1372.327393 
	C1185.459106,1372.327393 1187.838013,1371.703735 1189.571533,1372.494507 
	C1191.487061,1373.368408 1192.811157,1375.538452 1194.392822,1377.143921 
	C1192.791016,1378.721069 1191.356567,1380.550781 1189.517334,1381.769775 
	C1188.589966,1382.384277 1186.928833,1381.891968 1185.158447,1381.884155 
z"/>
</svg>